<svg id="Column_Height" data-name="Column Height" xmlns="http://www.w3.org/2000/svg" xmlns:xlink="http://www.w3.org/1999/xlink" viewBox="0 0 37 55"><defs><linearGradient id="linear-gradient" x1="18.58" y1="55" x2="18.58" gradientUnits="userSpaceOnUse"><stop offset="0.12" stop-color="#5e5f5f"/><stop offset="1" stop-color="#bababa"/></linearGradient></defs><title>column-height</title><path id="column" d="M28.87.41c0-.14,0-.27,0-.41H8.35a4.36,4.36,0,0,0,0,.52,4.19,4.19,0,0,0,.32,1.63,2,2,0,0,0-.33,1.1A2,2,0,0,0,9.57,5.11,4.28,4.28,0,0,0,10.48,7a4.14,4.14,0,0,0-.09.87,4.36,4.36,0,0,0,.24,1.36,4.22,4.22,0,0,0,.61,6,1.9,1.9,0,0,0,0,.25,2,2,0,0,0,.5,1.3,3.39,3.39,0,0,0-.07.64,4.3,4.3,0,0,0,1.22,3,4.25,4.25,0,0,0-.39,5.5,2,2,0,0,0-.29,1,2,2,0,0,0,1.25,1.85,4.22,4.22,0,0,0,.19.87,2.17,2.17,0,0,0-.17.81,2,2,0,0,0,.84,1.62c0,.11,0,.21,0,.32a4.27,4.27,0,0,0,.41,1.79l.06.53a1.94,1.94,0,0,0-.39,1.15A2,2,0,0,0,15,37.39c.72,7.86,1,15.44.53,17.61h6c-.42-1.88.07-9.36.79-17.22a2,2,0,0,0,.62-1.44,1.92,1.92,0,0,0-.27-1,4.18,4.18,0,0,0,.59-2.13A4.26,4.26,0,0,0,23,31.94a4.16,4.16,0,0,0,.71-1.52,2,2,0,0,0,.59-2.94A4.25,4.25,0,0,0,25,25.09a3.84,3.84,0,0,0-.08-.76,4.23,4.23,0,0,0-.06-5.71,4.23,4.23,0,0,0,.6-2.15s0-.1,0-.16a2,2,0,0,0,1-1.72,2,2,0,0,0-.28-1,4.07,4.07,0,0,0,.21-1.27,4.24,4.24,0,0,0-1-2.75V9.48a4.27,4.27,0,0,0,2.28-3.77,3.94,3.94,0,0,0-.16-1.09,4.16,4.16,0,0,0,.42-1.56A4.29,4.29,0,0,0,28.87.41Z" style="fill:url(#linear-gradient)"/><path id="volcano" d="M.5,55s12.06-7,14-7h8c1.77,0,14,7,14,7Z" style="fill:#bfbebe"/></svg>