<svg id="VEI_7_-_orange" data-name="VEI 7 - orange" xmlns="http://www.w3.org/2000/svg" xmlns:xlink="http://www.w3.org/1999/xlink" viewBox="0 0 66 55"><defs><linearGradient id="linear-gradient" x1="29.41" y1="55" x2="29.41" y2="4.59" gradientUnits="userSpaceOnUse"><stop offset="0.14" stop-color="#5e5e5e"/><stop offset="1" stop-color="#b9b9b9"/></linearGradient></defs><title>vei-7-orange</title><path id="_7_-_column" data-name="7 - column" d="M51.86,9.3a2.57,2.57,0,0,0-.34-1.16h0a1,1,0,0,0,1-1,1,1,0,0,0-.85-1,1,1,0,0,0-1-.73A1,1,0,0,0,49.9,6a3,3,0,0,0-2.14-.9A3,3,0,0,0,46,5.61a2.38,2.38,0,0,0-1.78-.07,2.57,2.57,0,0,0-1.37-.41,2.73,2.73,0,0,0-.5,0A2.53,2.53,0,0,0,41.51,5a2.44,2.44,0,0,0-1.39.43,1,1,0,0,0-1.84-.15h-.05a2.49,2.49,0,0,0-1.35.4,1.41,1.41,0,0,0-.76-.22A1.49,1.49,0,0,0,35,6h-.74A1.49,1.49,0,0,0,33,5.29a1.46,1.46,0,0,0-1,.35,2.46,2.46,0,0,0-2.26-.27,2.49,2.49,0,0,0-.28-.15,1,1,0,0,0-.87-.53,1,1,0,0,0-.82.45A2.55,2.55,0,0,0,26.59,6a2.85,2.85,0,0,0-1.24-.65,2.92,2.92,0,0,0-3.47.24,2.43,2.43,0,0,0-.94-.19A2.5,2.5,0,0,0,19.29,6h-.1a1.51,1.51,0,0,0-1.37-.9,1.42,1.42,0,0,0-.71.19,2.9,2.9,0,0,0-1.46-.4,2.52,2.52,0,0,0-.48.05,1,1,0,0,0-.74-.35,1,1,0,0,0-.92.62,2.49,2.49,0,0,0-.61-.08,2.46,2.46,0,0,0-1.66.65,2.48,2.48,0,0,0-2.64,0,1,1,0,0,0-.7-.28,1,1,0,0,0-1,1A1,1,0,0,0,7.07,7a2.61,2.61,0,0,0-.24.54,3,3,0,0,0-.56,1.74,3,3,0,0,0,1.11,2.31v0a1.49,1.49,0,0,0,.89,2.55,2,2,0,0,0,.43,0,2.62,2.62,0,0,0-.11.69,2.48,2.48,0,0,0,.76,1.79,1,1,0,0,0-.21.58,1,1,0,0,0,1,1,.94.94,0,0,0,.3-.06,2.49,2.49,0,0,0,2.49,2.34,1.84,1.84,0,0,0,.33,0l.29.12a2.4,2.4,0,0,0,1.09.66,1.5,1.5,0,0,0,1.48,1.31,1.55,1.55,0,0,0,.31,0,2,2,0,0,0,1.19.4,2,2,0,0,0,.94-.25l.18.08a.51.51,0,0,0,0,.21.49.49,0,0,0,.22.25.48.48,0,0,0-.07.24.5.5,0,0,0,.5.5.45.45,0,0,0,.2,0,1,1,0,0,0,.44.15,1,1,0,0,0,.93.68.44.44,0,0,0,.15.08,1.5,1.5,0,0,0,1.13,2.48,1.47,1.47,0,0,0,.69-.17.47.47,0,0,0,.28.12,2,2,0,0,0,.07.23,1,1,0,0,0-.26.65,1,1,0,0,0,1,1,1,1,0,0,0,.25-.05.53.53,0,0,0,0,.39.5.5,0,0,0,.36.32,3.11,3.11,0,0,1,0,.32,1,1,0,0,0-.42.79,1,1,0,0,0,.29.71,1.55,1.55,0,0,0-.07.43,1.39,1.39,0,0,0,0,.3A2,2,0,0,0,24,33.65a2,2,0,0,0,1.37,1.89l0,.28a1.47,1.47,0,0,0,.19,1.62c1,8.16,1.5,15,.92,17.56h6c-.49-2.21.07-9.29,1-17.59a1.49,1.49,0,0,0,.86-1.35,1.51,1.51,0,0,0-.57-1.17v-.07a.49.49,0,0,0,.18-.38.44.44,0,0,0-.11-.29c0-.27.07-.53.1-.79a1,1,0,0,0,.23-.61.66.66,0,0,0,0-.15,2,2,0,0,0,.59-3.67s0-.05,0-.08a.5.5,0,0,0,.37-.48.43.43,0,0,0-.06-.22l0,0h.15a1.49,1.49,0,0,0,1.16-2.44.48.48,0,0,0,.44-.48s0-.06,0-.08a1.66,1.66,0,0,0,.58-.36.37.37,0,0,0,.21.06.52.52,0,0,0,.41-.22,3,3,0,0,0,2.3-1.84,1.42,1.42,0,0,0,.42.06,1.48,1.48,0,0,0,.83-.25,1.38,1.38,0,0,0,.6.13,1.5,1.5,0,0,0,1.5-1.5v-.06a2.56,2.56,0,0,0,.91-.44l1-.4a1,1,0,0,0,.85.51,1,1,0,0,0,1-1,1.17,1.17,0,0,0-.07-.38,2.48,2.48,0,0,0,1.8-2.39,2.43,2.43,0,0,0-.31-1.17l0,0a.76.76,0,0,0,.16,0A1,1,0,0,0,50,15a1,1,0,0,0,.67-.93.93.93,0,0,0-.05-.24,2,2,0,0,0,1-1.75,2,2,0,0,0-.22-.9s0,0,0-.06a1,1,0,0,0,1-1A1,1,0,0,0,51.86,9.3Z" style="fill:url(#linear-gradient)"/><path id="volcano" d="M11.5,55s12.06-7,14-7h8c1.77,0,14,7,14,7Z" style="fill:#bebebe"/><polygon id="_7_-_vertical_bracket" data-name="7 - vertical bracket" points="66 50 60 50 60 48 64 48 64 6 60 6 60 4 66 4 66 50" style="fill:#ffac00"/><polygon id="_7_-_horizontal_bracket" data-name="7 - horizontal bracket" points="54 6 52 6 52 2 7 2 7 6 5 6 5 0 54 0 54 6" style="fill:#ffac00"/></svg>