<svg id="VEI_3_-_orange" data-name="VEI 3 - orange" xmlns="http://www.w3.org/2000/svg" xmlns:xlink="http://www.w3.org/1999/xlink" viewBox="0 0 66 55"><defs><linearGradient id="linear-gradient" x1="29.52" y1="55" x2="29.52" y2="38.83" gradientUnits="userSpaceOnUse"><stop offset="0.43" stop-color="#5e5e5e"/><stop offset="1" stop-color="#707070"/></linearGradient></defs><title>vei-3-orange</title><path id="_3_-_column" data-name="3 - column" d="M33.09,42.12a.59.59,0,0,0-.07-.29l.06-.59a1,1,0,0,0,.33-.73,1,1,0,0,0-.19-.56v-.06a.45.45,0,0,0,.1-.28.5.5,0,0,0-.5-.5.45.45,0,0,0-.2,0A1,1,0,0,0,31.45,39a1.13,1.13,0,0,0-.26.23,1,1,0,0,0-.78-.41,1,1,0,0,0-.6.22.89.89,0,0,0-.32.08.49.49,0,0,0-.35-.15A.58.58,0,0,0,29,39a.49.49,0,0,0-.38-.19.5.5,0,0,0-.41.22.52.52,0,0,0-.32-.11.61.61,0,0,0-.39.15.93.93,0,0,0-.56-.2.92.92,0,0,0-.52.17.47.47,0,0,0-.17,0,.5.5,0,0,0-.34.86h0a1,1,0,0,0-.24.62.92.92,0,0,0,.17.52h0a.71.71,0,0,0,.24.51h0a.49.49,0,0,0,.08.7c0,.18,0,.36.05.55a.94.94,0,0,0,.09.88c.49,5.28.67,9.43.25,11.32h6c-.33-1.51-.18-5.27.24-10.14a.45.45,0,0,0,.1-.28.43.43,0,0,0-.06-.22q0-.44.09-.9a1,1,0,0,0,.31-.72,1,1,0,0,0-.12-.45A1,1,0,0,0,33.09,42.12Z" style="fill:url(#linear-gradient)"/><path id="volcano" d="M11.5,55s12.06-7,14-7h8c1.77,0,14,7,14,7Z" style="fill:#bebebe"/><polygon id="_3_-_vertical_bracket" data-name="3 - vertical bracket" points="66 50 60 50 60 48 64 48 64 39.6 60 39.6 60 37.6 66 37.6 66 50" style="fill:#ffac00"/><polygon id="_3_-_horizontal_bracket" data-name="3 - horizontal bracket" points="35.2 6 33.2 6 33.2 2 25.8 2 25.8 6 23.8 6 23.8 0 35.2 0 35.2 6" style="fill:#ffac00"/></svg>