<svg id="VEI_4_-_blue" data-name="VEI 4 - blue" xmlns="http://www.w3.org/2000/svg" xmlns:xlink="http://www.w3.org/1999/xlink" viewBox="0 0 66 55"><defs><linearGradient id="linear-gradient" x1="29.58" y1="55" x2="29.58" y2="30.65" gradientUnits="userSpaceOnUse"><stop offset="0.29" stop-color="#5e5e5e"/><stop offset="1" stop-color="#828282"/></linearGradient></defs><title>vei-4-blue</title><path id="_4_-_column" data-name="4 - column" d="M34.53,31.78a.49.49,0,0,0-.2-.39.5.5,0,0,0-.5-.5.55.55,0,0,0-.31.11,1,1,0,0,0-.53-.17.93.93,0,0,0-.44.11h-.07a.49.49,0,0,0-.38.18,1,1,0,0,0-.79-.27.48.48,0,0,0-.36-.16.5.5,0,0,0-.37.17,1,1,0,0,0-.25-.05l-.08,0a.48.48,0,0,0-.36-.16.5.5,0,0,0-.48.38h0a1,1,0,0,0-.56-.2,1,1,0,0,0-.23,0,.48.48,0,0,0-.29-.1.47.47,0,0,0-.26.08,1,1,0,0,0-.62-.23,1,1,0,0,0-.85.5,1,1,0,0,0-.7-.28,1,1,0,0,0-.46.12l-.14,0a.47.47,0,0,0-.41.23h-.05v.06a.71.71,0,0,0,0,.21.44.44,0,0,0,.11.29v0s0,0,0,.07a.24.24,0,0,0,0,.08.48.48,0,0,0-.21.4.48.48,0,0,0,0,.18.48.48,0,0,0-.1.28.5.5,0,0,0,.14.34s0,.06,0,.09a1.49,1.49,0,0,0,.46,1.08l0,.24a.67.67,0,0,0,0,.87.7.7,0,0,0,.16.14c0,.19,0,.37.07.56a1,1,0,0,0,.21,1.81l.06.54a1,1,0,0,0-.22.59,1,1,0,0,0,.27.67,1.94,1.94,0,0,0,0,.24,1.51,1.51,0,0,0,.22.79c.71,6.65,1.05,12,.55,14.23h6c-.42-1.91-.07-7.45.63-14.27a1,1,0,0,0,.57-.89,1,1,0,0,0-.26-.66,1.55,1.55,0,0,0,.13-.61,1.44,1.44,0,0,0-.14-.62c.07-.61.14-1.22.21-1.85a1,1,0,0,0,.21-1.86l0-.22a1.47,1.47,0,0,0,.3-.89,2,2,0,0,0,0-.25.5.5,0,0,0,.08-.27.48.48,0,0,0-.14-.34A.5.5,0,0,0,34.53,31.78Z" style="fill:url(#linear-gradient)"/><path id="volcano" d="M11.5,55s12.06-7,14-7h8c1.77,0,14,7,14,7Z" style="fill:#bebebe"/><polygon id="_4_-_vertical_bracket" data-name="4 - vertical bracket" points="66 50 60 50 60 48 64 48 64 31.2 60 31.2 60 29.2 66 29.2 66 50" style="fill:#4aa9ff"/><polygon id="_4_-_horizontal_bracket" data-name="4 - horizontal bracket" points="36.2 6 34.2 6 34.2 2 24.8 2 24.8 6 22.8 6 22.8 0 36.2 0 36.2 6" style="fill:#4aa9ff"/></svg>