<svg id="VEI_2_-_orange" data-name="VEI 2 - orange" xmlns="http://www.w3.org/2000/svg" xmlns:xlink="http://www.w3.org/1999/xlink" viewBox="0 0 66 55"><defs><linearGradient id="linear-gradient" x1="29.55" y1="55" x2="29.55" y2="45.88" gradientUnits="userSpaceOnUse"><stop offset="0.77" stop-color="#5e5e5e"/><stop offset="1" stop-color="#626262"/></linearGradient></defs><title>vei-2-orange</title><path id="_2_-_column" data-name="2 - column" d="M32.72,47.16a1,1,0,0,0,0-.25.5.5,0,0,0,0-.65.49.49,0,0,0-.55-.16.51.51,0,0,0-.27-.09.48.48,0,0,0-.29.1A1,1,0,0,0,31.2,46a.42.42,0,0,0-.27-.09.49.49,0,0,0-.43.26.53.53,0,0,0-.37-.16.55.55,0,0,0-.3.11,1,1,0,0,0-.67-.26,1,1,0,0,0-.65.25.43.43,0,0,0-.54,0,1,1,0,0,0-.59-.21.94.94,0,0,0-.57.2h0a.5.5,0,0,0-.5.5.52.52,0,0,0,.09.28v0a.89.89,0,0,0,.18.53A32.2,32.2,0,0,1,26.5,55h6a33.83,33.83,0,0,1,0-7.27A1,1,0,0,0,32.72,47.16Z" style="fill:url(#linear-gradient)"/><path id="volcano" d="M11.5,55s12.06-7,14-7h8c1.77,0,14,7,14,7Z" style="fill:#bebebe"/><polygon id="_2_-_vertical_bracket" data-name="2 - vertical bracket" points="66 50 60 50 60 48 64 48 64 46.3 60 46.3 60 44.3 66 44.3 66 50" style="fill:#ffac00"/><polygon id="_2_-_horizontal_bracket" data-name="2 - horizontal bracket" points="34.6 6 32.6 6 32.6 2 26.4 2 26.4 6 24.4 6 24.4 0 34.6 0 34.6 6" style="fill:#ffac00"/></svg>