<svg id="VEI_1_-_orange" data-name="VEI 1 - orange" xmlns="http://www.w3.org/2000/svg" viewBox="0 0 66 55"><title>vei-1-orange</title><path id="_1_-_column" data-name="1 - column" d="M32.42,49.25a1,1,0,0,0,.26-.66,1,1,0,0,0-.1-.43.3.3,0,0,0,0-.1.5.5,0,0,0-.5-.5.48.48,0,0,0-.23.07.58.58,0,0,0-.19,0,.76.76,0,0,0-.16,0h0l-.13,0a1,1,0,0,0-.42-.1.94.94,0,0,0-.57.2,1,1,0,0,0-.48-.14,1,1,0,0,0-.56.19.5.5,0,0,0-.39-.21.5.5,0,0,0-.27.08,1.43,1.43,0,0,0-.22,0,1,1,0,0,0-.39.08.37.37,0,0,0-.21-.06.47.47,0,0,0-.21.06,1,1,0,0,0-.43-.11.89.89,0,0,0-.43.11.49.49,0,0,0-.37.31,1,1,0,0,0-.2.58,1,1,0,0,0,.45.82A24.48,24.48,0,0,1,26.5,55h6A26.74,26.74,0,0,1,32.42,49.25Z" style="fill:#5e5e5e"/><path id="volcano" d="M11.5,55s12.06-7,14-7h8c1.77,0,14,7,14,7Z" style="fill:#bebebe"/><polygon id="_1_-_vertical_bracket" data-name="1 - vertical bracket" points="66 50 60 50 60 48 64 48 64 47.83 60 47.83 60 45.83 66 45.83 66 50" style="fill:#ffac00"/><polygon id="_1_-_horizontal_bracket" data-name="1 - horizontal bracket" points="34.4 6 32.4 6 32.4 2 26.6 2 26.6 6 24.6 6 24.6 0 34.4 0 34.4 6" style="fill:#ffac00"/></svg>