<svg id="VEI_5_-_blue" data-name="VEI 5 - blue" xmlns="http://www.w3.org/2000/svg" xmlns:xlink="http://www.w3.org/1999/xlink" viewBox="0 0 66 55"><defs><linearGradient id="linear-gradient" x1="29.15" y1="55" x2="29.15" y2="21.79" gradientUnits="userSpaceOnUse"><stop offset="0.21" stop-color="#5e5e5e"/><stop offset="1" stop-color="#959595"/></linearGradient></defs><title>vei-5-blue</title><path id="_5_-_column" data-name="5 - column" d="M39.56,22.8h-.13a.44.44,0,0,0-.3-.23.51.51,0,0,0-.48-.39.5.5,0,0,0-.37.17A.81.81,0,0,0,38,22.3a1,1,0,0,0-.7.28,1.5,1.5,0,0,0-1-.36,1.58,1.58,0,0,0-.75.2,1.56,1.56,0,0,0-.44-.07,1.52,1.52,0,0,0-.79.23.49.49,0,0,0-.49-.49.61.61,0,0,0-.24.06.49.49,0,0,0-.93,0l-.18,0a2,2,0,0,0-1.24.44.95.95,0,0,0-1,.2L30,22.58a.54.54,0,0,0-.28-.11,2.63,2.63,0,0,0-.69-.13.55.55,0,0,0-.22-.06.51.51,0,0,0-.27.09l-.3.07-.17,0a1.5,1.5,0,0,0-.88.29,1,1,0,0,0-.53-.18,1,1,0,0,0-.46.13.58.58,0,0,0-.14,0l-.06,0a1.46,1.46,0,0,0-1.08-.46,1.68,1.68,0,0,0-.55.1,2,2,0,0,0-1-.28,2,2,0,0,0-.84.19.48.48,0,0,0-.29-.1.51.51,0,0,0-.45.28l-.11,0a.88.88,0,0,0-.48-.15.94.94,0,0,0-.34.07,1,1,0,0,0-.7-.28,1,1,0,0,0-.68.27.45.45,0,0,0-.41,0,.49.49,0,0,0-.07.89.48.48,0,0,0-.07.24.5.5,0,0,0,.5.5.45.45,0,0,0,.2,0,1,1,0,0,0,.44.15,1,1,0,0,0,.93.68.44.44,0,0,0,.15.08,1.5,1.5,0,0,0,1.13,2.48,1.47,1.47,0,0,0,.69-.17.47.47,0,0,0,.28.12,2,2,0,0,0,.07.23,1,1,0,0,0-.26.65,1,1,0,0,0,1,1,1,1,0,0,0,.25-.05.53.53,0,0,0,0,.39.5.5,0,0,0,.36.32,3.11,3.11,0,0,1,0,.32,1,1,0,0,0-.42.79,1,1,0,0,0,.29.71,1.55,1.55,0,0,0-.07.43,1.39,1.39,0,0,0,0,.3A2,2,0,0,0,24,33.65a2,2,0,0,0,1.37,1.89l0,.28a1.47,1.47,0,0,0,.19,1.62c1,8.16,1.5,15,.92,17.56h6c-.49-2.21.07-9.29,1-17.59a1.49,1.49,0,0,0,.86-1.35,1.51,1.51,0,0,0-.57-1.17v-.07a.49.49,0,0,0,.18-.38.44.44,0,0,0-.11-.29c0-.27.07-.53.1-.79a1,1,0,0,0,.23-.61.66.66,0,0,0,0-.15,2,2,0,0,0,.59-3.67s0-.05,0-.08a.5.5,0,0,0,.37-.48.43.43,0,0,0-.06-.22l0,0h.15a1.49,1.49,0,0,0,1.16-2.44.48.48,0,0,0,.44-.48s0-.06,0-.08a1.66,1.66,0,0,0,.58-.36.37.37,0,0,0,.21.06.5.5,0,0,0,.5-.5.13.13,0,0,0,0-.06,1,1,0,0,0,.85-.74h0a.5.5,0,0,0,.5-.5.41.41,0,0,0,0-.19Z" style="fill:url(#linear-gradient)"/><path id="volcano" d="M11.5,55s12.06-7,14-7h8c1.77,0,14,7,14,7Z" style="fill:#bebebe"/><polygon id="_5_-_vertical_bracket" data-name="5 - vertical bracket" points="66 50 60 50 60 48 64 48 64 22.8 60 22.8 60 20.8 66 20.8 66 50" style="fill:#4aa9ff"/><polygon id="_5_-_horizontal_bracket" data-name="5 - horizontal bracket" points="42 6 40 6 40 2 19 2 19 6 17 6 17 0 42 0 42 6" style="fill:#4aa9ff"/></svg>