<svg id="VEI_6_-_blue" data-name="VEI 6 - blue" xmlns="http://www.w3.org/2000/svg" xmlns:xlink="http://www.w3.org/1999/xlink" viewBox="0 0 66 55"><defs><linearGradient id="linear-gradient" x1="29.39" y1="55" x2="29.39" y2="13.07" gradientUnits="userSpaceOnUse"><stop offset="0.17" stop-color="#5e5e5e"/><stop offset="1" stop-color="#a6a6a6"/></linearGradient></defs><title>vei-6-blue</title><path id="_6_-_column" data-name="6 - column" d="M46.54,14.79A1,1,0,0,0,45,14a.5.5,0,0,0-.95.2,2.41,2.41,0,0,0-.79-.33,1.53,1.53,0,0,0-1-.5,1.49,1.49,0,0,0-2,.21,2.63,2.63,0,0,0-.49-.05,2.3,2.3,0,0,0-.79.14,2.48,2.48,0,0,0-1.34-.4,2.45,2.45,0,0,0-1.88.87,1.61,1.61,0,0,0-.73-.19,1.49,1.49,0,0,0-.78.23.51.51,0,0,0-.5-.49.45.45,0,0,0-.23.07.49.49,0,0,0-.86-.18,2.84,2.84,0,0,0-.66-.09,2.52,2.52,0,0,0-1.85.82h0l-.26-.13a.39.39,0,0,0-.27-.11,2.28,2.28,0,0,0-.69-.13.46.46,0,0,0-.23-.06.5.5,0,0,0-.27.08l-.3.07h-.17a1.44,1.44,0,0,0-.87.28,1,1,0,0,0-.53-.18,1.06,1.06,0,0,0-.47.13l-.13,0h-.07a1.49,1.49,0,0,0-1.07-.46,1.51,1.51,0,0,0-.56.11,1.92,1.92,0,0,0-1-.29,2.15,2.15,0,0,0-.84.19.48.48,0,0,0-.29-.1.5.5,0,0,0-.5.5.54.54,0,0,0,.05.21h-.23a2.27,2.27,0,0,0-.25-.18.49.49,0,0,0-.82-.34,2.73,2.73,0,0,0-.5-.05,2.47,2.47,0,0,0-1.57.57h-.08a2.67,2.67,0,0,0-.36-.22,1.49,1.49,0,0,0-2.35-.65l-.13,0a2.46,2.46,0,0,0-1.41.44l-.2,0a1.46,1.46,0,0,0-1.08.47h-.18l.08.12a1.46,1.46,0,0,0-.32.91A1.48,1.48,0,0,0,13,16.7a2.59,2.59,0,0,0,.32.72,2.51,2.51,0,0,0-.44,1.41,2.48,2.48,0,0,0,.62,1.63s0,.05,0,.07l.06,0a2.58,2.58,0,0,0,1.1.66,1.5,1.5,0,0,0,1.48,1.31,1.55,1.55,0,0,0,.31,0,2,2,0,0,0,2.14.15l.17.08a.51.51,0,0,0,0,.21.49.49,0,0,0,.22.25.48.48,0,0,0-.07.24.5.5,0,0,0,.5.5.45.45,0,0,0,.2,0,1,1,0,0,0,.44.15,1,1,0,0,0,.93.68.44.44,0,0,0,.15.08,1.5,1.5,0,0,0,1.13,2.48,1.47,1.47,0,0,0,.69-.17.47.47,0,0,0,.28.12,2,2,0,0,0,.07.23,1,1,0,0,0-.26.65,1,1,0,0,0,1,1,1,1,0,0,0,.25-.05.53.53,0,0,0,0,.39.5.5,0,0,0,.36.32,3.11,3.11,0,0,1,0,.32,1,1,0,0,0-.42.79,1,1,0,0,0,.29.71,1.55,1.55,0,0,0-.07.43,1.39,1.39,0,0,0,0,.3A2,2,0,0,0,24,33.65a2,2,0,0,0,1.37,1.89l0,.28a1.47,1.47,0,0,0,.19,1.62c1,8.16,1.5,15,.92,17.56h6c-.49-2.21.07-9.29,1-17.59a1.49,1.49,0,0,0,.86-1.35,1.51,1.51,0,0,0-.57-1.17v-.07a.49.49,0,0,0,.18-.38.44.44,0,0,0-.11-.29c0-.27.07-.53.1-.79a1,1,0,0,0,.23-.61.66.66,0,0,0,0-.15,2,2,0,0,0,.59-3.67s0-.05,0-.08a.5.5,0,0,0,.37-.48.43.43,0,0,0-.06-.22l0,0h.15a1.49,1.49,0,0,0,1.16-2.44.48.48,0,0,0,.44-.48s0-.06,0-.08a1.66,1.66,0,0,0,.58-.36.37.37,0,0,0,.21.06.5.5,0,0,0,.5-.5.13.13,0,0,0,0-.06,1,1,0,0,0,.85-.74h0a.5.5,0,0,0,.5-.5.45.45,0,0,0,0-.2l.5-.24a1.43,1.43,0,0,0,.79.23,1.48,1.48,0,0,0,.83-.25,1.38,1.38,0,0,0,.6.13,1.5,1.5,0,0,0,1.5-1.5v-.06a2.4,2.4,0,0,0,.92-.45l0,0v0a2.4,2.4,0,0,0,.52-.58,2.49,2.49,0,0,0,.62-3.45,2.2,2.2,0,0,0,0-.36,1.82,1.82,0,0,0-.08-.52A1,1,0,0,0,46.54,14.79Z" style="fill:url(#linear-gradient)"/><path id="volcano" d="M11.5,55s12.06-7,14-7h8c1.77,0,14,7,14,7Z" style="fill:#bebebe"/><polygon id="_6_-_vertical_bracket" data-name="6 - vertical bracket" points="66 50 60 50 60 48 64 48 64 14.4 60 14.4 60 12.4 66 12.4 66 50" style="fill:#4aa9ff"/><polygon id="_6_-_horizontal_bracket" data-name="6 - horizontal bracket" points="48.52 6 46.52 6 46.52 2 12.47 2 12.47 6 10.47 6 10.47 0 48.52 0 48.52 6" style="fill:#4aa9ff"/></svg>