<svg id="Wind_Symbol_-_orange" data-name="Wind Symbol - orange" xmlns="http://www.w3.org/2000/svg" xmlns:xlink="http://www.w3.org/1999/xlink" viewBox="0 0 22 17"><defs><linearGradient id="linear-gradient" x1="11.86" y1="17" x2="11.86" y2="0.67" gradientUnits="userSpaceOnUse"><stop offset="0" stop-color="#fff" stop-opacity="0"/><stop offset="0.28" stop-color="#fff"/></linearGradient><linearGradient id="linear-gradient-2" x1="15.57" y1="17" x2="15.57" y2="7.08" gradientUnits="userSpaceOnUse"><stop offset="0" stop-color="#ffac00" stop-opacity="0"/><stop offset="0.34" stop-color="#ffac00"/></linearGradient><linearGradient id="linear-gradient-3" x1="12.39" y1="17" x2="12.39" y2="2.67" gradientUnits="userSpaceOnUse"><stop offset="0" stop-color="#ffac00" stop-opacity="0"/><stop offset="0.33" stop-color="#ffac00"/></linearGradient><linearGradient id="linear-gradient-4" x1="7.25" x2="7.25" y2="5.86" xlink:href="#linear-gradient-3"/></defs><title>wind-symbol-orange</title><path id="outline" d="M3.73,12a3.91,3.91,0,0,0,1.64.79,3.29,3.29,0,0,0,.71.07,3.44,3.44,0,0,0,1.31-.26,1.94,1.94,0,0,0,0,.24c.08.92.09,1.87.09,2.6l0,1.32V17H15s0-.05,0-.07,0-.2,0-.29c0-.45-.05-.9-.06-1.38v-.54a4.34,4.34,0,0,0,1.49.48l.52,0a4.23,4.23,0,0,0,1.28-.2,4.44,4.44,0,0,0,1.46-.76,5.13,5.13,0,0,0,1-1,4.6,4.6,0,0,0,.73-1.47,4.68,4.68,0,0,0,.2-1.64,5.28,5.28,0,0,0-1.05-2.82,5.64,5.64,0,0,0-2.19-1.74,5.51,5.51,0,0,0-1.91-.46l0-.11a3.55,3.55,0,0,0-.24-1.93,3.88,3.88,0,0,0-1.13-1.51A4.07,4.07,0,0,0,12.62.67a4,4,0,0,0-2.46.83A4.46,4.46,0,0,0,9.09,2.67a6,6,0,0,0-.55,1.24s0,.12-.06.2,0,.1,0,.13v0L8,4.08a4.66,4.66,0,0,0-1.44-.22H6.45a4.19,4.19,0,0,0-1.7.4A4.47,4.47,0,0,0,2.54,6.52a4.75,4.75,0,0,0-.36,2.87A4.46,4.46,0,0,0,3.73,12Z" style="fill:url(#linear-gradient)"/><g id="wind_curl_right" data-name="wind curl right"><path d="M11.51,17l0-.23c0-.51.08-1,.13-1.53a29.2,29.2,0,0,1,.42-3.06c.05-.25.11-.5.17-.76s.13-.51.21-.76a7.87,7.87,0,0,1,.6-1.49,4.48,4.48,0,0,1,1.07-1.33,3.36,3.36,0,0,1,1.64-.73,3.26,3.26,0,0,1,1.8.26A3.68,3.68,0,0,1,19,8.49a3.3,3.3,0,0,1,.65,1.73,2.59,2.59,0,0,1-.12,1,2.81,2.81,0,0,1-.42.85,3.09,3.09,0,0,1-.64.66,2.81,2.81,0,0,1-.84.44,2.33,2.33,0,0,1-.95.08,2.15,2.15,0,0,1-.89-.31,2,2,0,0,1-.65-.65,1.65,1.65,0,0,1-.25-.86,1.52,1.52,0,0,1,.24-.82,1.84,1.84,0,0,1,.55-.56,2,2,0,0,0-.3.67,1.3,1.3,0,0,0,0,.65,1.26,1.26,0,0,0,.8.82,1.37,1.37,0,0,0,1.07-.05,1.55,1.55,0,0,0,.46-.31,2.27,2.27,0,0,0,.37-.45,1.77,1.77,0,0,0,.25-1,2.1,2.1,0,0,0-.38-1,2.57,2.57,0,0,0-.89-.78,1.93,1.93,0,0,0-1.13-.21,2.07,2.07,0,0,0-1.08.46,3.45,3.45,0,0,0-.82,1,7.82,7.82,0,0,0-.9,2.66A14.28,14.28,0,0,0,13,13.82c0,.49,0,1,0,1.47s0,1,.06,1.48c0,.07,0,.23,0,.23Z" style="fill:url(#linear-gradient-2)"/></g><g id="wind_curl_mid" data-name="wind curl mid"><path d="M11,17c-.17-2.34.07-2.82,0-5.06-.06-1.39-.44-2.95-.6-4.17a10.66,10.66,0,0,1-.07-2.53c0-.12.05-.25.08-.37l0-.19c0-.06,0-.12,0-.19a3.81,3.81,0,0,1,.33-.75,2.54,2.54,0,0,1,.58-.65,2.2,2.2,0,0,1,.82-.38,2.05,2.05,0,0,1,1.7.39,1.74,1.74,0,0,1,.54.72,1.64,1.64,0,0,1,.11.87,1.93,1.93,0,0,1-.29.77A1.32,1.32,0,0,1,13.6,6a1,1,0,0,1-.83,0,1.11,1.11,0,0,1-.57-.54,1,1,0,0,1,0-.75,1.38,1.38,0,0,1,.42-.58,1.38,1.38,0,0,0-.32.61.84.84,0,0,0,.13.62.83.83,0,0,0,.49.35.71.71,0,0,0,.54-.06.88.88,0,0,0,.36-.42,1.46,1.46,0,0,0,.12-.57,1,1,0,0,0-.15-.5,1.13,1.13,0,0,0-.37-.35,1.26,1.26,0,0,0-1-.15,1.41,1.41,0,0,0-.82.61,2.4,2.4,0,0,0-.27.53s0,.1-.05.15l0,.15c0,.11-.06.22-.08.33a9.12,9.12,0,0,0-.06,2.41c.09,1.28.38,2.33.39,3.9C11.49,13.11,11.12,14.49,11,17Z" style="fill:url(#linear-gradient-3)"/></g><g id="wind_curl_left" data-name="wind curl left"><path d="M9.46,17v-.15l0-1.39c0-.93,0-1.86-.1-2.78,0-.46-.09-.91-.15-1.37S9.09,10.42,9,10a8.44,8.44,0,0,0-.41-1.26,3.93,3.93,0,0,0-.62-1L7.77,7.5l-.1-.07,0,0-.07,0a2,2,0,0,0-.5-.21,1.31,1.31,0,0,0-.94.06,1.67,1.67,0,0,0-.74.66,1.78,1.78,0,0,0-.27,1,1.55,1.55,0,0,0,.42,1,.92.92,0,0,0,1.65-.46A1.05,1.05,0,0,0,7,8.83a2,2,0,0,0-.45-.52,1.87,1.87,0,0,1,.58.43,1.48,1.48,0,0,1,.21.32,1.18,1.18,0,0,1,.1.38,1.2,1.2,0,0,1-.19.78,1.41,1.41,0,0,1-1.51.63A1.84,1.84,0,0,1,5,10.47,2.48,2.48,0,0,1,4.14,9a2.89,2.89,0,0,1,.22-1.69A2.53,2.53,0,0,1,5.59,6.07a2.24,2.24,0,0,1,.91-.21A2.69,2.69,0,0,1,7.4,6a3.15,3.15,0,0,1,.76.37l.09,0,.09.07a1.24,1.24,0,0,1,.18.14c.11.1.21.2.31.31A4.79,4.79,0,0,1,9.6,8.32,8.71,8.71,0,0,1,10,9.75a14.32,14.32,0,0,1,.22,1.44c0,.48.09,1,.12,1.43.09,1.46.08,2.93.05,4.38Z" style="fill:url(#linear-gradient-4)"/></g></svg>