<svg id="Wind_Speed_and_Direction_-_blue" data-name="Wind Speed and Direction - blue" xmlns="http://www.w3.org/2000/svg" viewBox="0 0 39 39"><title>wind-speed-and-direction-blue</title><g id="dial"><path d="M19.5,0A19.5,19.5,0,1,0,39,19.5,19.53,19.53,0,0,0,19.5,0Z" style="fill:#4aa9ff"/><path d="M19.5,2A17.5,17.5,0,1,1,2,19.5,17.51,17.51,0,0,1,19.5,2" style="fill:#fff"/></g><g id="minor_ticks" data-name="minor ticks"><path d="M5.06,13l-.84-.35-.39.92.86.35C4.8,13.59,4.93,13.28,5.06,13Z" style="fill:#979797"/><path d="M13.9,4.69l-.35-.86-.92.39.35.84C13.28,4.93,13.59,4.8,13.9,4.69Z" style="fill:#979797"/><path d="M26,5.06l.35-.84-.92-.39-.35.86C25.41,4.8,25.72,4.93,26,5.06Z" style="fill:#979797"/><path d="M34.31,13.9l.86-.35-.39-.92-.84.35C34.07,13.28,34.2,13.59,34.31,13.9Z" style="fill:#979797"/><path d="M33.94,26l.84.35.39-.92-.86-.35C34.2,25.41,34.07,25.72,33.94,26Z" style="fill:#979797"/><path d="M25.1,34.31l.35.86.92-.39L26,33.94C25.72,34.07,25.41,34.2,25.1,34.31Z" style="fill:#979797"/><path d="M13,33.94l-.35.84.92.39.35-.86C13.59,34.2,13.28,34.07,13,33.94Z" style="fill:#979797"/><path d="M4.69,25.1l-.86.35.39.92L5.06,26C4.93,25.72,4.8,25.41,4.69,25.1Z" style="fill:#979797"/></g><g id="major_ticks" data-name="major ticks"><path d="M9.1,8,8,7,7,8,8,9.1A13.5,13.5,0,0,1,9.1,8Z" style="fill:#797979"/><path d="M31,9.1,32.05,8,31,7,29.9,8A13.5,13.5,0,0,1,31,9.1Z" style="fill:#797979"/><path d="M29.9,31,31,32.05,32.05,31,31,29.9A13.5,13.5,0,0,1,29.9,31Z" style="fill:#797979"/><path d="M8,29.9,7,31,8,32.05,9.1,31A13.5,13.5,0,0,1,8,29.9Z" style="fill:#797979"/></g><g id="ordinal_directions" data-name="ordinal directions"><path d="M21,30.71a.32.32,0,0,1-.1.12.23.23,0,0,1-.14,0,.32.32,0,0,1-.18-.06l-.24-.14a1.92,1.92,0,0,0-.32-.14,1.35,1.35,0,0,0-.43-.06,1.48,1.48,0,0,0-.39.05,1.06,1.06,0,0,0-.28.15.76.76,0,0,0-.17.23.94.94,0,0,0-.05.3.55.55,0,0,0,.11.34,1.19,1.19,0,0,0,.3.23,3.5,3.5,0,0,0,.43.17l.49.16.49.2a1.8,1.8,0,0,1,.43.29,1.19,1.19,0,0,1,.3.43,1.38,1.38,0,0,1,.12.61,2,2,0,0,1-.14.73,1.73,1.73,0,0,1-.39.6,1.84,1.84,0,0,1-.63.4,2.26,2.26,0,0,1-.85.14,2.5,2.5,0,0,1-.55,0,3.8,3.8,0,0,1-.51-.15,3.33,3.33,0,0,1-.46-.24,2.38,2.38,0,0,1-.38-.32l.31-.51a.36.36,0,0,1,.11-.1.28.28,0,0,1,.13,0,.35.35,0,0,1,.22.08l.27.18a1.68,1.68,0,0,0,.38.18,1.3,1.3,0,0,0,.51.08,1.07,1.07,0,0,0,.71-.21.79.79,0,0,0,.25-.63.54.54,0,0,0-.11-.37.89.89,0,0,0-.3-.24,2.41,2.41,0,0,0-.43-.17l-.49-.15a4.94,4.94,0,0,1-.49-.19,1.37,1.37,0,0,1-.42-.29,1.34,1.34,0,0,1-.31-.45,1.84,1.84,0,0,1-.11-.67,1.46,1.46,0,0,1,.13-.61,1.6,1.6,0,0,1,.36-.54,2,2,0,0,1,.6-.37,2.2,2.2,0,0,1,.8-.14,2.67,2.67,0,0,1,.95.16,2.25,2.25,0,0,1,.73.45Z" style="fill:#797979"/><path d="M3.4,16.44h.91a.35.35,0,0,1,.23.07.31.31,0,0,1,.13.17l1,3.46a2.29,2.29,0,0,1,.07.28,3.06,3.06,0,0,1,0,.32c0-.11.05-.22.08-.32a2.29,2.29,0,0,1,.08-.28l1.13-3.46a.38.38,0,0,1,.13-.16.31.31,0,0,1,.23-.08h.31a.36.36,0,0,1,.24.07.37.37,0,0,1,.13.17l1.12,3.46a3.92,3.92,0,0,1,.15.57l.06-.3.06-.27,1-3.46a.35.35,0,0,1,.36-.24h.84l-1.8,5.78h-1L7.65,18.27a.75.75,0,0,1-.05-.16,1.05,1.05,0,0,1,0-.19,1.8,1.8,0,0,0,0,.19,1.42,1.42,0,0,0,0,.16L6.17,22.22h-1Z" style="fill:#797979"/><path d="M35.39,16.44v.86H32.83v1.6h2v.83h-2v1.63h2.56v.86H31.74V16.44Z" style="fill:#797979"/><path d="M17.74,3.84l.09,0a.2.2,0,0,1,.07.06A.24.24,0,0,1,18,4l3,3.86a2.45,2.45,0,0,1,0-.27,2.18,2.18,0,0,1,0-.25V3.83h1V9.62h-.56a.65.65,0,0,1-.21,0A.55.55,0,0,1,21,9.43L18,5.58a2.28,2.28,0,0,1,0,.26,1.85,1.85,0,0,1,0,.23V9.62h-1V3.83h.68Z" style="fill:#797979"/></g></svg>