<svg id="Wind_Speed_and_Direction" data-name="Wind Speed and Direction" xmlns="http://www.w3.org/2000/svg" viewBox="0 0 54 54"><title>Wind Speed and Direction</title><circle id="oueline" cx="27" cy="27" r="27" style="fill:#797979"/><circle id="back" cx="27" cy="27" r="25" style="fill:#fff"/><g id="minor_ticks" data-name="minor ticks"><path id="NWN_tick" data-name="NWN tick" d="M18.66,5.57l-.38-.93L17.35,5l.39.93C18,5.81,18.35,5.69,18.66,5.57Z" style="fill:#979797"/><path id="WNW_tick" data-name="WNW tick" d="M6,17.74,5,17.35l-.38.93.93.38C5.69,18.35,5.81,18,6,17.74Z" style="fill:#979797"/><path id="WSW_tick" data-name="WSW tick" d="M5.57,35.34l-.93.38.38.93L6,36.26C5.81,36,5.69,35.65,5.57,35.34Z" style="fill:#979797"/><path id="SSW_tick" data-name="SSW tick" d="M17.74,48.05l-.39.93.93.38.38-.93C18.35,48.31,18,48.19,17.74,48.05Z" style="fill:#979797"/><path id="SSE_tick" data-name="SSE tick" d="M35.34,48.43l.38.93.93-.38-.39-.93C36,48.19,35.65,48.31,35.34,48.43Z" style="fill:#979797"/><path id="ESE_tick" data-name="ESE tick" d="M48.05,36.26l.93.39.38-.93-.93-.38C48.31,35.65,48.19,36,48.05,36.26Z" style="fill:#979797"/><path id="ENE_tick" data-name="ENE tick" d="M48.43,18.66l.93-.38L49,17.35l-.93.39C48.19,18,48.31,18.35,48.43,18.66Z" style="fill:#979797"/><path id="NNE_tick" data-name="NNE tick" d="M36.26,6,36.65,5l-.93-.38-.38.93C35.65,5.69,36,5.81,36.26,6Z" style="fill:#979797"/></g><g id="major_ticks" data-name="major ticks"><path id="NW_tick" data-name="NW tick" d="M11.63,10.57,10.38,9.32,9.32,10.38l1.25,1.25C10.91,11.27,11.27,10.91,11.63,10.57Z" style="fill:#797979"/><path id="SW_tick" data-name="SW tick" d="M10.57,42.37,9.32,43.62l1.06,1.06,1.25-1.25C11.27,43.09,10.91,42.73,10.57,42.37Z" style="fill:#797979"/><path id="SE_tick" data-name="SE tick" d="M42.37,43.43l1.25,1.25,1.06-1.06-1.25-1.25C43.09,42.73,42.73,43.09,42.37,43.43Z" style="fill:#797979"/><path id="NE_tick" data-name="NE tick" d="M43.43,11.63l1.25-1.25L43.62,9.32l-1.25,1.25C42.73,10.91,43.09,11.27,43.43,11.63Z" style="fill:#797979"/></g><path id="W" d="M3.45,23.75h1a.39.39,0,0,1,.25.07A.38.38,0,0,1,4.8,24l1,3.67a2.64,2.64,0,0,1,.07.3l.06.34c0-.12,0-.23.08-.34a2.63,2.63,0,0,1,.08-.3L7.34,24a.34.34,0,0,1,.14-.18.36.36,0,0,1,.24-.08h.34a.36.36,0,0,1,.24.07.38.38,0,0,1,.14.19l1.2,3.67c.06.19.11.39.16.61L9.86,28a2.46,2.46,0,0,1,.07-.29L11,24a.32.32,0,0,1,.13-.18.36.36,0,0,1,.25-.08h.9l-1.91,6.14h-1L8,25.7a1.21,1.21,0,0,0,0-.18,1.17,1.17,0,0,1,0-.2l-.06.2c0,.06,0,.12,0,.18L6.39,29.89h-1Z" style="fill:#797979"/><path id="S" d="M28.63,45.8a.28.28,0,0,1-.1.13.26.26,0,0,1-.15,0,.32.32,0,0,1-.19-.07l-.25-.14a1.52,1.52,0,0,0-.34-.15,1.53,1.53,0,0,0-.46-.07,1.27,1.27,0,0,0-.41.06.86.86,0,0,0-.3.16.64.64,0,0,0-.18.25.78.78,0,0,0-.06.31.56.56,0,0,0,.12.36,1,1,0,0,0,.32.25l.46.18.52.17a4.71,4.71,0,0,1,.52.21,1.8,1.8,0,0,1,.45.31,1.23,1.23,0,0,1,.32.45,1.6,1.6,0,0,1,.13.65,2,2,0,0,1-.15.78,1.8,1.8,0,0,1-.41.64,2,2,0,0,1-.67.42,2.59,2.59,0,0,1-.91.16,2.86,2.86,0,0,1-.58-.06,2.43,2.43,0,0,1-.54-.17,2.51,2.51,0,0,1-.49-.25,2.69,2.69,0,0,1-.41-.33l.34-.55a.36.36,0,0,1,.11-.1.23.23,0,0,1,.14,0,.37.37,0,0,1,.23.09l.29.19a2.12,2.12,0,0,0,.4.19,1.47,1.47,0,0,0,.55.09,1.14,1.14,0,0,0,.75-.23.85.85,0,0,0,.27-.67.61.61,0,0,0-.12-.39,1,1,0,0,0-.32-.26,2.45,2.45,0,0,0-.46-.18l-.51-.15a4.71,4.71,0,0,1-.52-.21,1.77,1.77,0,0,1-.46-.31,1.35,1.35,0,0,1-.32-.47,1.88,1.88,0,0,1-.12-.71,1.69,1.69,0,0,1,.13-.66,1.67,1.67,0,0,1,.39-.56,2,2,0,0,1,.64-.4,2.26,2.26,0,0,1,.85-.15,2.91,2.91,0,0,1,1,.17,2.34,2.34,0,0,1,.78.48Z" style="fill:#797979"/><path id="E" d="M50.5,23.75v.91H47.77v1.7h2.15v.88H47.77V29H50.5v.91H46.62V23.75Z" style="fill:#797979"/><path id="N" d="M25.13,3.61l.09,0,.08.06a.45.45,0,0,1,.09.1L28.62,7.9c0-.1,0-.2,0-.3s0-.18,0-.26V3.6h1V9.75H29a.67.67,0,0,1-.22,0,.52.52,0,0,1-.18-.16L25.39,5.46c0,.09,0,.18,0,.27v4h-1V3.6h.72Z" style="fill:#797979"/><path id="arrow_stem" data-name="arrow stem" d="M25,14.05V27a2,2,0,0,0,4,0V14.05Z" style="fill:#979797"/><polygon id="arrow_head" data-name="arrow head" points="27 3 21.61 14.05 32.38 14.05 27 3" style="fill:#979797"/><circle id="pin" cx="27" cy="27" r="0.5" style="fill:#fff"/></svg>