<svg id="Particle" xmlns="http://www.w3.org/2000/svg" viewBox="0 0 37 28"><title>Particle</title><path id="particle-2" data-name="particle" d="M27,8.25c-.77-1.83-2.16-3.08-3.29-4.62a7.69,7.69,0,0,0-3.54-3A10.09,10.09,0,0,0,16,0c-2.46,0-3.26.52-5.45,1.43C9.16,2,7.81,2,6.23,3c-1.39.89-2.51,2.7-3.52,4-2.27,3-3.63,8.85-2,12.46.81,1.77,2.4,2.83,3.5,4.36a9.25,9.25,0,0,0,3.45,3.36c3.05,1.3,7.48.78,10.52-.28,3.76-1.31,5.82-3.76,8.19-7S28.13,11,27,8.25Z" style="fill:#979797"/><g id="specks"><path d="M20.58,5.38c0,.32-.34.53-.49.78s-.18.62-.44.77-.59,0-.9,0-.65.18-.9,0a1.83,1.83,0,0,1-.56-.72,1.68,1.68,0,0,1-.24-.84c0-.31.23-.51.37-.76A1.46,1.46,0,0,1,18,4.06c.25-.14.45-.43.76-.43s.52.27.77.42.53.24.68.5A1.85,1.85,0,0,1,20.58,5.38Z" style="fill:#a8a8a8"/><path d="M6.46,13.4a1.76,1.76,0,0,1-.29.84,1.65,1.65,0,0,1-.61.62,1.6,1.6,0,0,1-.84.22A1.86,1.86,0,0,1,3.8,15c-.26-.15-.28-.56-.43-.82s-.45-.46-.45-.78.33-.51.47-.76.16-.66.42-.81a1.84,1.84,0,0,1,.91-.12,1.69,1.69,0,0,1,.86.21c.26.15.32.45.47.71S6.46,13.09,6.46,13.4Z" style="fill:#a8a8a8"/><path d="M17.82,23.76a1.06,1.06,0,0,1-.36.81c-.22.22-.46.53-.8.53a1.47,1.47,0,0,1-1-.38,1.37,1.37,0,0,1-.31-1,1.22,1.22,0,0,1,.41-.86,1.15,1.15,0,0,1,.86-.36,1.19,1.19,0,0,1,.86.36A1.12,1.12,0,0,1,17.82,23.76Z" style="fill:#a8a8a8"/><path d="M13.82,20.76c0,.35.06.77-.17,1a1.43,1.43,0,0,1-1,.23,1.16,1.16,0,0,1-.85-.38,1.13,1.13,0,0,1-.32-.84,1.06,1.06,0,0,1,.36-.81c.23-.22.46-.53.81-.53a1.45,1.45,0,0,1,.95.38A1.33,1.33,0,0,1,13.82,20.76Z" style="fill:#a8a8a8"/><path d="M23.63,9a1.13,1.13,0,0,1-.19.78,1.18,1.18,0,0,1-.78.28A1.07,1.07,0,0,1,22,9.7.9.9,0,0,1,21.73,9c0-.28-.05-.61.14-.8A1.14,1.14,0,0,1,22.66,8a.9.9,0,0,1,.67.31A.91.91,0,0,1,23.63,9Z" style="fill:#a8a8a8"/><path d="M9.6,24a1,1,0,0,1-.22.72,1,1,0,0,1-.72.19A.86.86,0,0,1,8,24.67.91.91,0,0,1,7.68,24a1.14,1.14,0,0,1,.19-.79A1.19,1.19,0,0,1,8.66,23a1,1,0,0,1,.68.38A.94.94,0,0,1,9.6,24Z" style="fill:#a8a8a8"/><path d="M6.55,8a.85.85,0,0,1-.23.66A.88.88,0,0,1,5.66,9,.85.85,0,0,1,5,8.67.85.85,0,0,1,4.71,8a1,1,0,0,1,.23-.72.92.92,0,0,1,.72-.2A.86.86,0,0,1,6.55,8Z" style="fill:#a8a8a8"/><path d="M3.61,16.25a.8.8,0,0,1-1.59,0,.77.77,0,0,1,.79-.73A.78.78,0,0,1,3.61,16.25Z" style="fill:#a8a8a8"/><path d="M20.46,23.56a.7.7,0,0,1-.68.77.74.74,0,0,1-.72-.77.79.79,0,0,1,.72-.82A.76.76,0,0,1,20.46,23.56Z" style="fill:#a8a8a8"/><path d="M19.65,9.25a.9.9,0,0,1-.84.83A.88.88,0,0,1,18,9.25a.79.79,0,0,1,.81-.73A.81.81,0,0,1,19.65,9.25Z" style="fill:#a8a8a8"/></g><rect id="caliper_bottom" data-name="caliper bottom" x="31" y="26" width="6" height="2" style="fill:#797979"/><rect id="caliper_side" data-name="caliper side" x="35" width="2" height="28" style="fill:#797979"/><rect id="caliper_top" data-name="caliper top" x="31" width="6" height="2" style="fill:#797979"/></svg>