<svg id="Column" xmlns="http://www.w3.org/2000/svg" viewBox="0 0 40 55"><title>Column</title><path id="column-2" data-name="column" d="M28.87.41c0-.14,0-.27,0-.41H8.35a4.36,4.36,0,0,0,0,.52,4.19,4.19,0,0,0,.32,1.63,2,2,0,0,0-.33,1.1A2,2,0,0,0,9.57,5.11,4.28,4.28,0,0,0,10.48,7a4.14,4.14,0,0,0-.09.87,4.36,4.36,0,0,0,.24,1.36,4.22,4.22,0,0,0,.61,6,1.9,1.9,0,0,0,0,.25,2,2,0,0,0,.5,1.3,3.39,3.39,0,0,0-.07.64,4.3,4.3,0,0,0,1.22,3,4.25,4.25,0,0,0-.39,5.5,2,2,0,0,0-.29,1,2,2,0,0,0,1.25,1.85,4.22,4.22,0,0,0,.19.87,2.17,2.17,0,0,0-.17.81,2,2,0,0,0,.84,1.62c0,.11,0,.21,0,.32a4.27,4.27,0,0,0,.41,1.79l.06.53a1.94,1.94,0,0,0-.39,1.15A2,2,0,0,0,15,37.39c.72,7.86,1.1,14.44.62,16.61h6c-.42-1.88,0-8.36.7-16.22a2,2,0,0,0,.62-1.44,1.92,1.92,0,0,0-.27-1,4.18,4.18,0,0,0,.59-2.13A4.26,4.26,0,0,0,23,31.94a4.16,4.16,0,0,0,.71-1.52,2,2,0,0,0,.59-2.94A4.25,4.25,0,0,0,25,25.09a3.84,3.84,0,0,0-.08-.76,4.23,4.23,0,0,0-.06-5.71,4.23,4.23,0,0,0,.6-2.15s0-.1,0-.16a2,2,0,0,0,1-1.72,2,2,0,0,0-.28-1,4.07,4.07,0,0,0,.21-1.27,4.24,4.24,0,0,0-1-2.75V9.48a4.27,4.27,0,0,0,2.28-3.77,3.94,3.94,0,0,0-.16-1.09,4.16,4.16,0,0,0,.42-1.56A4.29,4.29,0,0,0,28.87.41Z" style="fill:#979797"/><path id="volcano" d="M.41,55s12.4-8.52,14.18-7.72a9,9,0,0,0,8-.28c1.52-.91,14.17,8,14.17,8Z" style="fill:#bebebe"/><rect id="caliper_bottom" data-name="caliper bottom" x="33.59" y="46" width="6" height="2" style="fill:#797979"/><rect id="caliper_side" data-name="caliper side" x="37.59" width="2" height="48" style="fill:#797979"/><rect id="caliper_top" data-name="caliper top" x="33.59" width="6" height="2" style="fill:#797979"/></svg>