<svg id="Ejected_Volume" data-name="Ejected Volume" xmlns="http://www.w3.org/2000/svg" viewBox="0 0 54 48"><title>Ejected Volume</title><g id="bottom_outline" data-name="bottom outline" style="opacity:0.5"><path d="M27,36.51l22.86,5.27L27,47.05,4.14,41.78,27,36.51m0-.95L0,41.78,27,48l27-6.22L27,35.56Z" style="fill:#797979"/></g><g id="back_right_outline" data-name="back right outline" style="opacity:0.5"><path d="M28,1.26,53,7v33.5L28,34.76V1.26M27,0V35.56l27,6.22V6.22L27,0Z" style="fill:#797979"/></g><g id="back_left_outline" data-name="back left outline" style="opacity:0.5"><path d="M26,1.26v33.5L1,40.52V7L26,1.26M27,0,0,6.22V41.78l27-6.22V0Z" style="fill:#797979"/></g><g id="side_c" data-name="side c" style="opacity:0.8"><polygon points="54 10.62 27 16.85 27 48 54 41.78 54 10.62" style="fill:#979797"/></g><g id="side_b" data-name="side b" style="opacity:0.8"><polygon points="0 10.62 27 16.85 27 48 0 41.78 0 10.62" style="fill:#a8a8a8"/></g><polygon id="side_a" data-name="side a" points="0 10.62 27 4.4 54 10.62 27 16.85 0 10.62" style="fill:#bebebe;opacity:0.8"/><g id="side_c_outline" data-name="side c outline"><path d="M53,7.48V41L28,46.74V13.24L53,7.48m1-1.26L27,12.44V48l27-6.22V6.22Z" style="fill:#797979"/></g><g id="side_b_outline" data-name="side b outline"><path d="M1,7.48l25,5.76v33.5L1,41V7.48M0,6.22V41.78L27,48V12.44L0,6.22Z" style="fill:#797979"/></g><g id="side_a_outline" data-name="side a outline"><path d="M27,1,49.55,6.22,27,11.42,4.45,6.22,27,1m0-1L0,6.22l27,6.22L54,6.22,27,0Z" style="fill:#797979"/></g><g id="outline"><path d="M27,2.05,52,7.81V40.19L27,46,2,40.19V7.81L27,2.05m0-2L0,6.22V41.78L27,48l27-6.22V6.22L27,0Z" style="fill:#797979"/></g></svg>