<svg xmlns="http://www.w3.org/2000/svg" width="164" height="143" viewBox="0 0 164 143">
    <g fill="none" fill-rule="evenodd">
        <g fill-rule="nonzero">
            <g>
                <path fill="#FFF" d="M88 25c25.405 0 46 20.595 46 46s-20.595 46-46 46-46-20.595-46-46 20.595-46 46-46z" transform="translate(-42 -536) translate(42 536)"/>
                <g fill="#BEBEBE">
                    <path d="M92 45.625L92 46.375 0 46.375 0 45.625z" transform="translate(-42 -536) translate(42 536) rotate(60 45.35 94.873)"/>
                    <path d="M46.375 0L46.375 92 45.625 92 45.625 0z" transform="translate(-42 -536) translate(42 536) rotate(60 45.35 94.873)"/>
                </g>
                <g fill="#BEBEBE">
                    <path d="M92 45.625L92 46.375 0 46.375 0 45.625z" transform="translate(-42 -536) translate(42 536) rotate(30 20.35 136.873)"/>
                    <path d="M46.375 0L46.375 92 45.625 92 45.625 0z" transform="translate(-42 -536) translate(42 536) rotate(30 20.35 136.873)"/>
                </g>
                <g fill="#BEBEBE">
                    <path d="M92 45.625L92 46.375 0 46.375 0 45.625z" transform="translate(-42 -536) translate(42 536) translate(42 25)"/>
                    <path d="M46.375 0L46.375 92 45.625 92 45.625 0z" transform="translate(-42 -536) translate(42 536) translate(42 25)"/>
                </g>
                <path fill="#797979" d="M88 25c25.405 0 46 20.595 46 46s-20.595 46-46 46-46-20.595-46-46 20.595-46 46-46zm0 1.5c-24.577 0-44.5 19.923-44.5 44.5s19.923 44.5 44.5 44.5 44.5-19.923 44.5-44.5S112.577 26.5 88 26.5z" transform="translate(-42 -536) translate(42 536)"/>
                <path fill="#9C9C9C" d="M88 62c-4.97 0-9 4.03-9 9s4.03 9 9 9 9-4.03 9-9-4.03-9-9-9z" transform="translate(-42 -536) translate(42 536)"/>
                <path fill="#FFF" d="M88 64c3.866 0 7 3.134 7 7s-3.134 7-7 7-7-3.134-7-7 3.134-7 7-7z" transform="translate(-42 -536) translate(42 536)"/>
                <path fill="#434343" d="M49.095 27.58c.33 0 .64-.05.928-.147.288-.099.54-.24.757-.425.217-.185.387-.41.512-.673.125-.263.188-.56.188-.89 0-.437-.117-.8-.352-1.09-.236-.29-.586-.497-1.053-.62.19-.057.362-.132.515-.225.153-.093.284-.208.392-.343.109-.135.192-.291.25-.47.059-.178.088-.38.088-.607 0-.277-.052-.528-.155-.755-.103-.227-.248-.42-.432-.58-.185-.16-.406-.283-.663-.37-.257-.087-.537-.13-.84-.13-.307 0-.592.044-.857.133-.265.088-.5.217-.706.387-.205.17-.374.38-.507.633-.133.251-.223.54-.27.867l.465.08.063.008.052.002c.083 0 .152-.022.205-.065.053-.043.093-.113.12-.21.04-.153.1-.296.18-.427.08-.132.18-.245.297-.34.119-.096.255-.17.408-.223.153-.053.32-.08.5-.08s.348.025.502.075c.155.05.29.125.403.225.113.1.203.227.267.38.066.153.098.333.098.54 0 .187-.03.357-.093.51-.061.153-.16.285-.297.395-.137.11-.313.197-.528.26-.214.063-.474.097-.777.1v.645c.373 0 .68.033.917.1.239.067.425.158.56.275.136.117.229.255.28.415.052.16.078.337.078.53 0 .157-.032.315-.095.475-.063.16-.157.305-.282.435-.126.13-.282.236-.47.318-.189.081-.408.122-.658.122-.25 0-.46-.037-.627-.11-.169-.073-.31-.163-.423-.27-.113-.107-.203-.22-.27-.343-.067-.121-.123-.23-.17-.327l-.02-.047-.02-.043c-.027-.06-.066-.104-.117-.133-.052-.028-.111-.042-.178-.042-.07 0-.14.015-.21.045l-.38.16c.083.267.185.514.305.742.12.229.273.426.46.593.187.167.415.297.685.392.27.095.595.143.975.143zm5.8 0c.33 0 .64-.05.927-.147.289-.099.541-.24.758-.425.217-.185.388-.41.513-.673.124-.263.187-.56.187-.89 0-.437-.117-.8-.352-1.09-.235-.29-.586-.497-1.053-.62.19-.057.362-.132.515-.225.153-.093.284-.208.392-.343.109-.135.192-.291.25-.47.059-.178.088-.38.088-.607 0-.277-.052-.528-.155-.755-.103-.227-.248-.42-.433-.58-.184-.16-.405-.283-.662-.37-.257-.087-.537-.13-.84-.13-.307 0-.593.044-.858.133-.264.088-.5.217-.704.387-.206.17-.375.38-.508.633-.133.251-.223.54-.27.867l.465.08.063.008.052.002c.083 0 .152-.022.205-.065.053-.043.093-.113.12-.21.04-.153.1-.296.18-.427.08-.132.18-.245.297-.34.119-.096.255-.17.408-.223.153-.053.32-.08.5-.08s.348.025.503.075c.155.05.289.125.402.225.113.1.203.227.268.38s.097.333.097.54c0 .187-.03.357-.093.51-.061.153-.16.285-.297.395-.137.11-.313.197-.527.26-.215.063-.475.097-.778.1v.645c.373 0 .68.033.917.1.239.067.425.158.56.275.136.117.229.255.28.415.052.16.078.337.078.53 0 .157-.032.315-.095.475-.063.16-.157.305-.282.435-.125.13-.282.236-.47.318-.189.081-.408.122-.658.122-.25 0-.46-.037-.627-.11-.169-.073-.31-.163-.423-.27-.113-.107-.203-.22-.27-.343-.067-.121-.123-.23-.17-.327l-.02-.047-.02-.043c-.027-.06-.066-.104-.117-.133-.052-.028-.111-.042-.178-.042-.07 0-.14.015-.21.045l-.38.16c.083.267.185.514.305.742.12.229.273.426.46.593.187.167.415.297.685.392.27.095.595.143.975.143zm5.73-.005c.363 0 .704-.073 1.023-.22.318-.147.594-.37.827-.67.233-.3.417-.68.553-1.137.135-.459.202-1.001.202-1.628s-.067-1.17-.202-1.63c-.136-.46-.32-.84-.553-1.142-.233-.302-.51-.526-.828-.673-.318-.147-.659-.22-1.022-.22-.367 0-.708.073-1.023.22-.314.147-.589.37-.822.672-.233.302-.417.683-.55 1.143-.133.46-.2 1.003-.2 1.63s.067 1.17.2 1.627c.133.459.317.838.55 1.138.233.3.508.523.822.67.316.147.656.22 1.023.22zm0-.75c-.22 0-.432-.05-.635-.148-.203-.098-.382-.26-.535-.487-.153-.227-.276-.525-.367-.895-.092-.37-.138-.828-.138-1.375s.046-1.006.137-1.378c.092-.371.215-.67.368-.897.153-.227.332-.39.535-.488.203-.098.415-.147.635-.147.22 0 .432.05.635.147.203.099.383.261.538.488.154.227.278.526.37.898.091.371.137.83.137 1.377s-.046 1.005-.138 1.375c-.091.37-.215.668-.37.895-.154.227-.334.39-.537.487-.203.099-.415.148-.635.148zm4.885-3.36c.23 0 .444-.043.642-.128.199-.084.371-.2.518-.345.147-.145.262-.315.345-.51.083-.194.125-.402.125-.622 0-.223-.042-.433-.125-.63-.083-.197-.198-.367-.345-.512-.147-.145-.32-.26-.517-.343-.199-.083-.413-.125-.643-.125-.23 0-.444.042-.642.125-.199.083-.371.198-.518.343-.147.145-.262.315-.345.512-.083.197-.125.407-.125.63 0 .22.042.428.125.623.083.194.198.364.345.51.147.145.32.26.518.345.198.084.412.127.642.127zm0-.6c-.14 0-.27-.026-.392-.077-.122-.052-.228-.123-.318-.213s-.16-.196-.21-.317c-.05-.122-.075-.253-.075-.393s.025-.272.075-.395c.05-.123.12-.23.21-.322s.196-.164.318-.215c.121-.052.252-.078.392-.078s.27.026.39.078c.12.051.225.123.315.215.09.091.16.199.21.322.05.123.075.255.075.395s-.025.27-.075.393c-.05.121-.12.227-.21.317s-.195.16-.315.213c-.12.051-.25.077-.39.077zM28.595 48.08c.33 0 .64-.05.928-.148.288-.098.54-.24.757-.425.217-.184.387-.409.512-.672.125-.263.188-.56.188-.89 0-.437-.117-.8-.352-1.09-.236-.29-.586-.497-1.053-.62.19-.057.362-.132.515-.225.153-.093.284-.207.393-.343.108-.135.191-.291.25-.47.058-.178.087-.38.087-.607 0-.277-.052-.528-.155-.755-.103-.227-.247-.42-.432-.58-.186-.16-.406-.283-.663-.37-.257-.087-.537-.13-.84-.13-.307 0-.593.044-.858.133-.264.088-.5.217-.704.387-.206.17-.375.38-.508.633-.133.251-.223.54-.27.867l.465.08.063.008.052.002c.083 0 .152-.022.205-.065.053-.043.093-.113.12-.21.04-.153.1-.296.18-.428.08-.131.18-.245.297-.34.119-.095.255-.169.408-.222.153-.053.32-.08.5-.08s.348.025.503.075c.154.05.289.125.402.225.113.1.203.227.267.38.066.153.098.333.098.54 0 .187-.03.357-.092.51-.062.153-.161.285-.298.395-.137.11-.313.197-.527.26-.216.063-.475.097-.778.1v.645c.373 0 .68.033.918.1s.425.158.56.275c.134.117.228.255.28.415.051.16.077.337.077.53 0 .157-.032.315-.095.475-.063.16-.158.305-.283.435-.125.13-.281.236-.47.317-.188.082-.407.123-.657.123-.25 0-.46-.037-.628-.11-.168-.073-.309-.163-.422-.27-.113-.107-.203-.22-.27-.343-.067-.121-.123-.23-.17-.327l-.02-.048-.02-.042c-.027-.06-.066-.104-.117-.133-.052-.028-.111-.042-.178-.042-.07 0-.14.015-.21.045l-.38.16c.083.267.185.514.305.742.12.229.273.426.46.593.187.167.415.297.685.392.27.096.595.143.975.143zm5.73-.005c.363 0 .704-.073 1.022-.22.319-.147.595-.37.828-.67.233-.3.418-.68.553-1.138.134-.458.202-1 .202-1.627s-.068-1.17-.203-1.63c-.134-.46-.319-.84-.552-1.142-.233-.302-.51-.526-.828-.673-.318-.147-.659-.22-1.022-.22-.367 0-.708.073-1.023.22-.315.147-.589.37-.822.672-.233.302-.417.683-.55 1.143-.133.46-.2 1.003-.2 1.63s.067 1.17.2 1.627c.133.459.317.838.55 1.138.233.3.508.523.823.67.315.147.655.22 1.022.22zm0-.75c-.22 0-.432-.05-.635-.148-.203-.098-.382-.26-.535-.487-.153-.227-.276-.525-.367-.895-.092-.37-.138-.828-.138-1.375s.046-1.006.138-1.378c.091-.371.214-.67.367-.897.153-.227.332-.39.535-.488.203-.098.415-.147.635-.147.22 0 .432.05.635.148.203.098.383.26.538.487.155.227.278.526.37.897.091.372.137.831.137 1.378 0 .547-.046 1.005-.138 1.375-.091.37-.214.668-.37.895-.154.227-.334.39-.537.488-.203.098-.415.147-.635.147zm5.8.75c.363 0 .704-.073 1.023-.22.318-.147.594-.37.827-.67.233-.3.417-.68.553-1.138.135-.458.202-1 .202-1.627s-.067-1.17-.202-1.63c-.136-.46-.32-.84-.553-1.142-.233-.302-.51-.526-.828-.673-.318-.147-.659-.22-1.022-.22-.367 0-.708.073-1.023.22-.314.147-.589.37-.822.672-.233.302-.417.683-.55 1.143-.133.46-.2 1.003-.2 1.63s.067 1.17.2 1.627c.133.459.317.838.55 1.138.233.3.508.523.822.67.316.147.656.22 1.023.22zm0-.75c-.22 0-.432-.05-.635-.148-.203-.098-.382-.26-.535-.487-.153-.227-.276-.525-.367-.895-.092-.37-.138-.828-.138-1.375s.046-1.006.137-1.378c.092-.371.215-.67.368-.897.153-.227.332-.39.535-.488.203-.098.415-.147.635-.147.22 0 .432.05.635.148.203.098.383.26.538.487.154.227.278.526.37.897.091.372.137.831.137 1.378 0 .547-.046 1.005-.138 1.375-.091.37-.215.668-.37.895-.154.227-.334.39-.537.488-.203.098-.415.147-.635.147zm4.885-3.36c.23 0 .444-.043.643-.128.198-.085.37-.2.517-.345.147-.145.262-.314.345-.51.083-.194.125-.402.125-.622 0-.223-.042-.433-.125-.63-.083-.197-.198-.367-.345-.512-.147-.146-.32-.26-.517-.343-.199-.083-.413-.125-.643-.125-.23 0-.444.042-.642.125-.199.083-.371.197-.518.343-.147.144-.262.315-.345.512-.083.197-.125.407-.125.63 0 .22.042.428.125.623.083.195.198.364.345.51.147.145.32.26.517.344.199.085.413.128.643.128zm0-.6c-.14 0-.27-.026-.392-.078-.122-.051-.228-.122-.318-.212s-.16-.196-.21-.318c-.05-.121-.075-.252-.075-.392s.025-.272.075-.395c.05-.123.12-.23.21-.322s.196-.164.318-.216c.121-.051.252-.077.392-.077s.27.026.39.078c.12.051.225.123.315.215.09.091.16.199.21.322.05.123.075.255.075.395s-.025.27-.075.392c-.05.122-.12.228-.21.318s-.195.16-.315.212c-.12.052-.25.078-.39.078zM22.93 75v-.54c0-.09-.028-.163-.085-.22-.057-.057-.133-.085-.23-.085h-2.4c-.127 0-.258.01-.395.032s-.272.051-.405.088l1.885-1.93c.2-.203.39-.403.567-.597.179-.196.336-.397.473-.606.137-.208.245-.425.325-.652.08-.227.12-.473.12-.74 0-.313-.055-.593-.165-.84-.11-.247-.26-.456-.453-.627-.191-.172-.419-.303-.682-.393-.263-.09-.547-.135-.85-.135-.307 0-.593.044-.858.133-.265.088-.5.217-.704.387-.206.17-.375.38-.508.632s-.223.541-.27.868l.465.08c.023.003.044.006.063.007l.052.003c.087 0 .157-.022.21-.065.053-.043.093-.113.12-.21.033-.157.09-.3.173-.43.081-.13.181-.242.3-.337.118-.095.254-.17.407-.223.153-.053.32-.08.5-.08s.348.026.505.078c.157.051.293.129.41.232.117.103.208.234.275.392.067.159.1.343.1.553 0 .21-.03.407-.09.593-.06.184-.146.367-.258.547-.111.18-.245.36-.402.537-.157.179-.33.365-.52.558l-2.295 2.305c-.057.057-.098.118-.122.185-.025.067-.038.132-.038.195V75h4.78zm2.35 0c.13 0 .233-.03.31-.093.077-.061.137-.135.18-.222l2.965-5.985c.027-.05.053-.112.078-.185.024-.073.037-.167.037-.28v-.4h-4.87v.605c0 .057.023.108.067.153.046.044.096.067.153.067h3.74c-.057.063-.108.13-.152.2-.046.07-.09.147-.133.23L24.645 75h.635zm6.845.075c.363 0 .704-.073 1.023-.22.318-.147.594-.37.827-.67.233-.3.417-.68.553-1.138.135-.458.202-1 .202-1.627s-.067-1.17-.202-1.63c-.136-.46-.32-.84-.553-1.143-.233-.301-.51-.525-.828-.672-.318-.147-.659-.22-1.022-.22-.367 0-.707.073-1.023.22-.314.147-.589.37-.822.672-.233.302-.417.683-.55 1.143-.133.46-.2 1.003-.2 1.63s.067 1.17.2 1.627c.133.459.317.838.55 1.138.233.3.508.523.822.67.316.147.656.22 1.023.22zm0-.75c-.22 0-.432-.05-.635-.148-.203-.098-.382-.26-.535-.487-.153-.227-.276-.525-.367-.895-.092-.37-.138-.828-.138-1.375s.046-1.006.137-1.377c.092-.372.215-.671.368-.898.153-.227.332-.39.535-.487.203-.099.415-.148.635-.148.22 0 .432.05.635.147.203.099.383.261.538.488.154.227.278.526.37.898.091.371.137.83.137 1.377s-.046 1.005-.138 1.375c-.091.37-.215.668-.37.895-.154.227-.334.39-.537.487-.203.099-.415.148-.635.148zm4.885-3.36c.23 0 .444-.043.643-.127.198-.085.37-.2.517-.345.147-.145.262-.316.345-.51.083-.196.125-.403.125-.623 0-.223-.042-.433-.125-.63-.083-.197-.198-.368-.345-.513-.147-.144-.32-.259-.517-.342-.199-.083-.413-.125-.643-.125-.23 0-.444.042-.642.125-.199.083-.371.198-.518.343-.147.144-.262.315-.345.512-.083.197-.125.407-.125.63 0 .22.042.427.125.623.083.194.198.364.345.51.147.145.32.26.517.345.199.085.413.127.643.127zm0-.6c-.14 0-.27-.026-.392-.078-.122-.051-.228-.122-.318-.212s-.16-.196-.21-.318c-.05-.121-.075-.252-.075-.392s.025-.272.075-.395c.05-.123.12-.23.21-.323.09-.091.196-.163.318-.215.121-.051.252-.077.392-.077s.27.026.39.078c.12.051.225.123.315.214.09.092.16.2.21.323.05.123.075.255.075.395s-.025.27-.075.392c-.05.122-.12.228-.21.318s-.195.16-.315.212c-.12.052-.25.078-.39.078zM28.93 100v-.54c0-.09-.028-.163-.085-.22-.057-.057-.133-.085-.23-.085h-2.4c-.127 0-.258.01-.395.032s-.272.051-.405.088l1.885-1.93c.2-.203.39-.403.567-.597.179-.196.336-.397.473-.606.137-.208.245-.425.325-.652.08-.227.12-.473.12-.74 0-.313-.055-.593-.165-.84-.11-.247-.26-.456-.453-.627-.191-.172-.419-.303-.682-.393-.263-.09-.547-.135-.85-.135-.307 0-.593.044-.858.133-.265.088-.5.217-.704.387-.206.17-.375.38-.508.632s-.223.541-.27.868l.465.08c.023.003.044.006.063.007l.052.003c.087 0 .157-.022.21-.065.053-.043.093-.113.12-.21.033-.157.09-.3.173-.43.081-.13.181-.242.3-.337.118-.095.254-.17.407-.223.153-.053.32-.08.5-.08s.348.026.505.078c.157.051.293.129.41.232.117.103.208.234.275.392.067.159.1.343.1.553 0 .21-.03.407-.09.593-.06.184-.146.367-.258.547-.111.18-.245.36-.402.537-.157.179-.33.365-.52.558l-2.295 2.305c-.057.057-.098.118-.122.185-.025.067-.038.132-.038.195V100h4.78zm5.015 0v-1.885h.89c.067 0 .116-.018.148-.055.031-.037.047-.082.047-.135v-.51h-1.085v-4.58h-.83L29.63 97.46l.09.455c.013.057.044.104.093.142.048.039.105.058.172.058h3.175V100h.785zm-.785-2.585h-2.565L33.2 93.87c-.017.107-.028.21-.033.31-.005.1-.007.193-.007.28v2.955zm4.965 2.66c.363 0 .704-.073 1.023-.22.318-.147.594-.37.827-.67.233-.3.417-.68.553-1.138.135-.458.202-1 .202-1.627s-.067-1.17-.202-1.63c-.136-.46-.32-.84-.553-1.143-.233-.301-.51-.525-.828-.672-.318-.147-.659-.22-1.022-.22-.367 0-.708.073-1.023.22-.314.147-.589.37-.822.672-.233.302-.417.683-.55 1.143-.133.46-.2 1.003-.2 1.63s.067 1.17.2 1.627c.133.459.317.838.55 1.138.233.3.508.523.822.67.316.147.656.22 1.023.22zm0-.75c-.22 0-.432-.05-.635-.148-.203-.098-.382-.26-.535-.487-.153-.227-.276-.525-.367-.895-.092-.37-.138-.828-.138-1.375s.046-1.006.137-1.377c.092-.372.215-.671.368-.898.153-.227.332-.39.535-.487.203-.099.415-.148.635-.148.22 0 .432.05.635.147.203.099.383.261.538.488.154.227.278.526.37.898.091.371.137.83.137 1.377s-.046 1.005-.138 1.375c-.091.37-.215.668-.37.895-.154.227-.334.39-.537.487-.203.099-.415.148-.635.148zm4.885-3.36c.23 0 .444-.043.643-.127.198-.085.37-.2.517-.345.147-.145.262-.316.345-.51.083-.196.125-.403.125-.623 0-.223-.042-.433-.125-.63-.083-.197-.198-.368-.345-.513-.147-.144-.32-.259-.517-.342-.199-.083-.413-.125-.643-.125-.23 0-.444.042-.642.125-.199.083-.371.198-.518.343-.147.144-.262.315-.345.512-.083.197-.125.407-.125.63 0 .22.042.427.125.623.083.194.198.364.345.51.147.145.32.26.517.345.199.085.413.127.643.127zm0-.6c-.14 0-.27-.026-.392-.078-.122-.051-.228-.122-.318-.212s-.16-.196-.21-.318c-.05-.121-.075-.252-.075-.392s.025-.272.075-.395c.05-.123.12-.23.21-.323.09-.091.196-.163.318-.215.121-.051.252-.077.392-.077s.27.026.39.078c.12.051.225.123.315.214.09.092.16.2.21.323.05.123.075.255.075.395s-.025.27-.075.392c-.05.122-.12.228-.21.318s-.195.16-.315.212c-.12.052-.25.078-.39.078zM49.43 121.5v-.54c0-.09-.028-.163-.085-.22-.057-.057-.133-.085-.23-.085h-2.4c-.127 0-.258.01-.395.032s-.272.051-.405.088l1.885-1.93c.2-.203.39-.403.568-.597.178-.196.335-.397.472-.606.137-.208.245-.425.325-.652.08-.227.12-.473.12-.74 0-.313-.055-.593-.165-.84-.11-.247-.26-.456-.453-.627-.191-.172-.419-.303-.682-.393-.263-.09-.547-.135-.85-.135-.307 0-.593.044-.857.133-.265.088-.5.217-.706.387-.205.17-.374.38-.507.632s-.223.541-.27.868l.465.08c.023.003.044.006.063.007l.052.003c.087 0 .157-.022.21-.065.053-.043.093-.113.12-.21.033-.157.09-.3.172-.43.082-.13.182-.242.3-.337.119-.095.255-.17.408-.223.153-.053.32-.08.5-.08s.348.026.505.078c.157.051.293.129.41.232.117.103.208.234.275.392.067.159.1.343.1.553 0 .21-.03.407-.09.593-.06.184-.146.367-.257.547-.112.18-.246.36-.403.537-.157.179-.33.365-.52.558l-2.295 2.305c-.057.057-.098.118-.123.185-.024.067-.037.132-.037.195v.305h4.78zm5.775 0v-.68h-1.41v-6.5h-.725l-2.13 1.845.28.385c.02.03.05.056.09.078.04.021.085.032.135.032.03 0 .062-.006.095-.017.033-.012.067-.031.1-.058l1.28-1.095c-.01.15-.015.298-.015.445v4.885h-1.54v.68h3.84zm3.42.075c.363 0 .704-.073 1.023-.22.318-.147.594-.37.827-.67.233-.3.417-.68.553-1.138.135-.458.202-1 .202-1.627s-.067-1.17-.202-1.63c-.136-.46-.32-.84-.553-1.143-.233-.301-.51-.525-.828-.672-.318-.147-.659-.22-1.022-.22-.367 0-.708.073-1.023.22-.314.147-.589.37-.822.672-.233.302-.417.683-.55 1.143-.133.46-.2 1.003-.2 1.63s.067 1.17.2 1.627c.133.459.317.838.55 1.138.233.3.508.523.822.67.316.147.656.22 1.023.22zm0-.75c-.22 0-.432-.05-.635-.148-.203-.098-.382-.26-.535-.487-.153-.227-.276-.525-.367-.895-.092-.37-.138-.828-.138-1.375s.046-1.006.137-1.377c.092-.372.215-.671.368-.898.153-.227.332-.39.535-.487.203-.099.415-.148.635-.148.22 0 .432.05.635.147.203.099.383.261.538.488.154.227.278.526.37.898.091.371.137.83.137 1.377s-.046 1.005-.138 1.375c-.091.37-.215.668-.37.895-.154.227-.334.39-.537.487-.203.099-.415.148-.635.148zm4.885-3.36c.23 0 .444-.043.643-.127.198-.085.37-.2.517-.345.147-.145.262-.316.345-.51.083-.196.125-.403.125-.623 0-.223-.042-.433-.125-.63-.083-.197-.198-.368-.345-.513-.147-.144-.32-.259-.517-.342-.199-.083-.413-.125-.643-.125-.23 0-.444.042-.642.125-.199.083-.371.198-.518.343-.147.144-.262.315-.345.512-.083.197-.125.407-.125.63 0 .22.042.427.125.623.083.194.198.364.345.51.147.145.32.26.517.345.199.085.413.127.643.127zm0-.6c-.14 0-.27-.026-.392-.078-.122-.051-.228-.122-.318-.212s-.16-.196-.21-.318c-.05-.121-.075-.252-.075-.392s.025-.272.075-.395c.05-.123.12-.23.21-.323.09-.091.196-.163.318-.215.121-.051.252-.077.392-.077s.27.026.39.078c.12.051.225.123.315.214.09.092.16.2.21.323.05.123.075.255.075.395s-.025.27-.075.392c-.05.122-.12.228-.21.318s-.195.16-.315.212c-.12.052-.25.078-.39.078zM84.59 128v-.68h-1.41v-6.5h-.725l-2.13 1.845.28.385c.02.03.05.056.09.078.04.021.085.032.135.032.03 0 .062-.006.095-.017.033-.012.067-.031.1-.058l1.28-1.095c-.01.15-.015.298-.015.445v4.885h-1.54v.68h3.84zm3.42.08c.357 0 .683-.048.98-.143.297-.094.55-.23.763-.407.211-.177.376-.39.495-.642.118-.252.177-.535.177-.848 0-.46-.12-.84-.36-1.138-.24-.298-.583-.51-1.03-.637.373-.14.657-.35.85-.627.193-.279.29-.611.29-.998 0-.263-.052-.51-.155-.74-.103-.23-.25-.43-.44-.6-.19-.17-.418-.303-.685-.4-.267-.097-.562-.145-.885-.145-.327 0-.623.048-.888.145-.264.097-.492.23-.682.4-.19.17-.337.37-.44.6-.103.23-.155.477-.155.74 0 .387.096.72.287.998.192.278.476.487.853.627-.447.127-.79.34-1.03.638s-.36.677-.36 1.137c0 .313.058.596.175.847.117.252.282.466.495.643.213.177.468.313.765.407.297.096.623.143.98.143zm0-4.15c-.233 0-.433-.036-.598-.108-.165-.071-.299-.166-.402-.285-.103-.118-.178-.254-.225-.407-.047-.153-.07-.312-.07-.475 0-.167.028-.323.082-.47.056-.147.137-.275.246-.385.108-.11.243-.197.404-.26.162-.063.35-.095.563-.095.213 0 .4.032.563.095.161.063.296.15.405.26.108.11.19.238.245.385.055.147.082.303.082.47 0 .163-.023.322-.07.475-.047.153-.122.29-.225.407-.103.119-.238.214-.403.285-.165.072-.364.108-.597.108zm0 3.44c-.233 0-.443-.032-.628-.098-.184-.065-.341-.156-.47-.275-.128-.118-.226-.26-.294-.424-.069-.165-.103-.348-.103-.548 0-.247.04-.458.123-.633.081-.174.191-.317.33-.427.138-.11.297-.19.477-.243.18-.051.368-.077.565-.077.197 0 .385.026.565.078.18.051.34.132.477.242.139.11.249.252.33.427.082.175.123.386.123.633 0 .2-.034.382-.102.547-.069.165-.167.307-.296.425-.128.119-.284.21-.47.275-.184.066-.394.098-.627.098zm5.8.705c.363 0 .704-.073 1.022-.22.319-.147.595-.37.828-.67.233-.3.418-.68.553-1.138.135-.458.202-1 .202-1.627s-.068-1.17-.203-1.63c-.135-.46-.319-.84-.552-1.143-.233-.301-.51-.525-.828-.672-.318-.147-.659-.22-1.022-.22-.367 0-.707.073-1.023.22-.315.147-.589.37-.822.672-.233.302-.417.683-.55 1.143-.133.46-.2 1.003-.2 1.63s.067 1.17.2 1.627c.133.459.317.838.55 1.138.233.3.507.523.822.67.316.147.656.22 1.023.22zm0-.75c-.22 0-.432-.05-.635-.148-.203-.098-.382-.26-.535-.487-.153-.227-.276-.525-.368-.895-.091-.37-.137-.828-.137-1.375s.046-1.006.137-1.377c.092-.372.215-.671.368-.898.153-.227.332-.39.535-.487.203-.099.415-.148.635-.148.22 0 .432.05.635.147.203.099.383.261.538.488.154.227.278.526.37.898.091.371.137.83.137 1.377s-.046 1.005-.137 1.375c-.092.37-.215.668-.37.895-.156.227-.335.39-.538.487-.203.099-.415.148-.635.148zm4.885-3.36c.23 0 .444-.043.643-.127.198-.085.37-.2.517-.345.147-.145.262-.316.345-.51.083-.196.125-.403.125-.623 0-.223-.042-.433-.125-.63-.083-.197-.198-.368-.345-.513-.147-.144-.32-.259-.517-.342-.199-.083-.413-.125-.643-.125-.23 0-.444.042-.642.125-.199.083-.371.198-.518.343-.147.144-.262.315-.345.512-.083.197-.125.407-.125.63 0 .22.042.427.125.623.083.194.198.364.345.51.147.145.32.26.517.345.199.085.413.127.643.127zm0-.6c-.14 0-.27-.026-.392-.078-.122-.051-.228-.122-.318-.212s-.16-.196-.21-.318c-.05-.121-.075-.252-.075-.392s.025-.272.075-.395c.05-.123.12-.23.21-.323.09-.091.196-.163.317-.215.122-.051.253-.077.393-.077s.27.026.39.078c.12.051.225.123.315.214.09.092.16.2.21.323.05.123.075.255.075.395s-.025.27-.075.392c-.05.122-.12.228-.21.318s-.195.16-.315.212c-.12.052-.25.078-.39.078zM115.775 121.5v-.68h-1.41v-6.5h-.725l-2.13 1.845.28.385c.02.03.05.056.09.078.04.021.085.032.135.032.03 0 .062-.006.095-.017.033-.012.067-.031.1-.058l1.28-1.095c-.01.15-.015.298-.015.445v4.885h-1.54v.68h3.84zm3.055.08c.363 0 .702-.058 1.015-.175.313-.117.586-.284.817-.502.232-.219.415-.481.548-.788.133-.307.2-.65.2-1.03 0-.31-.05-.597-.147-.86-.099-.263-.245-.492-.438-.685-.193-.193-.433-.345-.718-.455-.284-.11-.614-.165-.987-.165-.317 0-.662.04-1.035.12l.33-1.88h2.25c.19 0 .325-.04.405-.123.08-.081.12-.185.12-.312v-.39h-3.395l-.58 3.35.56.165c.207-.067.407-.115.6-.145.193-.03.38-.045.56-.045.263 0 .493.035.69.105.197.07.36.168.493.295.131.127.23.28.294.46.066.18.098.382.098.605 0 .257-.038.488-.115.695-.077.207-.186.384-.328.533-.141.148-.312.262-.512.342-.2.08-.425.12-.675.12-.223 0-.416-.026-.578-.078-.161-.051-.302-.109-.422-.172-.12-.063-.222-.12-.307-.172-.085-.052-.16-.078-.223-.078-.1 0-.18.043-.24.13l-.27.38c.11.1.237.195.38.285.143.09.298.17.465.24.167.07.347.126.54.168.193.041.395.062.605.062zm6.165-.005c.363 0 .704-.073 1.022-.22.319-.147.595-.37.828-.67.233-.3.418-.68.552-1.138.135-.458.203-1 .203-1.627s-.067-1.17-.203-1.63c-.135-.46-.319-.84-.552-1.143-.233-.301-.51-.525-.828-.672-.318-.147-.659-.22-1.022-.22-.367 0-.708.073-1.023.22-.314.147-.589.37-.822.672-.233.302-.417.683-.55 1.143-.133.46-.2 1.003-.2 1.63s.067 1.17.2 1.627c.133.459.317.838.55 1.138.233.3.507.523.822.67.316.147.656.22 1.023.22zm0-.75c-.22 0-.432-.05-.635-.148-.203-.098-.382-.26-.535-.487-.153-.227-.276-.525-.368-.895-.091-.37-.137-.828-.137-1.375s.046-1.006.138-1.377c.091-.372.214-.671.367-.898.153-.227.332-.39.535-.487.203-.099.415-.148.635-.148.22 0 .432.05.635.147.203.099.383.261.538.488.154.227.278.526.37.898.091.371.137.83.137 1.377s-.046 1.005-.138 1.375c-.091.37-.215.668-.37.895-.154.227-.334.39-.537.487-.203.099-.415.148-.635.148zm4.885-3.36c.23 0 .444-.043.643-.127.198-.085.37-.2.517-.345.147-.145.262-.316.345-.51.083-.196.125-.403.125-.623 0-.223-.042-.433-.125-.63-.083-.197-.198-.368-.345-.513-.147-.144-.32-.259-.517-.342-.199-.083-.413-.125-.643-.125-.23 0-.444.042-.642.125-.199.083-.371.198-.518.343-.147.144-.262.315-.345.512-.083.197-.125.407-.125.63 0 .22.042.427.125.623.083.194.198.364.345.51.147.145.32.26.518.345.198.085.412.127.642.127zm0-.6c-.14 0-.27-.026-.392-.078-.122-.051-.228-.122-.318-.212s-.16-.196-.21-.318c-.05-.121-.075-.252-.075-.392s.025-.272.075-.395c.05-.123.12-.23.21-.323.09-.091.196-.163.318-.215.121-.051.252-.077.392-.077s.27.026.39.078c.12.051.225.123.315.214.09.092.16.2.21.323.05.123.075.255.075.395s-.025.27-.075.392c-.05.122-.12.228-.21.318s-.195.16-.315.212c-.12.052-.25.078-.39.078zM136.275 100v-.68h-1.41v-6.5h-.725l-2.13 1.845.28.385c.02.03.05.056.09.078.04.021.085.032.135.032.03 0 .062-.006.095-.017.033-.012.067-.031.1-.058l1.28-1.095c-.01.15-.015.298-.015.445v4.885h-1.54v.68h3.84zm5.825 0v-.54c0-.09-.028-.163-.085-.22-.057-.057-.133-.085-.23-.085h-2.4c-.127 0-.258.01-.395.032s-.272.051-.405.088l1.885-1.93c.2-.203.39-.403.567-.597.179-.196.336-.397.473-.606.137-.208.245-.425.325-.652.08-.227.12-.473.12-.74 0-.313-.055-.593-.165-.84-.11-.247-.26-.456-.452-.627-.192-.172-.42-.303-.683-.393-.263-.09-.547-.135-.85-.135-.307 0-.593.044-.858.133-.264.088-.5.217-.704.387-.206.17-.375.38-.508.632s-.223.541-.27.868l.465.08c.023.003.044.006.063.007l.052.003c.087 0 .157-.022.21-.065.053-.043.093-.113.12-.21.033-.157.09-.3.173-.43.081-.13.181-.242.3-.337.118-.095.254-.17.407-.223.153-.053.32-.08.5-.08s.348.026.505.078c.157.051.293.129.41.232.117.103.208.234.275.392.067.159.1.343.1.553 0 .21-.03.407-.09.593-.06.184-.146.367-.258.547-.111.18-.245.36-.402.537-.157.179-.33.365-.52.558l-2.295 2.305c-.057.057-.097.118-.123.185-.024.067-.037.132-.037.195V100h4.78zm3.395.075c.363 0 .704-.073 1.023-.22.318-.147.594-.37.827-.67.233-.3.417-.68.553-1.138.135-.458.202-1 .202-1.627s-.067-1.17-.202-1.63c-.136-.46-.32-.84-.553-1.143-.233-.301-.51-.525-.827-.672-.319-.147-.66-.22-1.023-.22-.367 0-.708.073-1.023.22-.315.147-.589.37-.822.672-.233.302-.417.683-.55 1.143-.133.46-.2 1.003-.2 1.63s.067 1.17.2 1.627c.133.459.317.838.55 1.138.233.3.507.523.822.67.315.147.656.22 1.023.22zm0-.75c-.22 0-.432-.05-.635-.148-.203-.098-.382-.26-.535-.487-.153-.227-.276-.525-.367-.895-.092-.37-.138-.828-.138-1.375s.046-1.006.138-1.377c.091-.372.214-.671.367-.898.153-.227.332-.39.535-.487.203-.099.415-.148.635-.148.22 0 .432.05.635.147.203.099.382.261.537.488.155.227.279.526.37.898.092.371.138.83.138 1.377s-.046 1.005-.138 1.375c-.091.37-.215.668-.37.895-.155.227-.334.39-.537.487-.203.099-.415.148-.635.148zm4.885-3.36c.23 0 .444-.043.643-.127.198-.085.37-.2.517-.345.147-.145.262-.316.345-.51.083-.196.125-.403.125-.623 0-.223-.042-.433-.125-.63-.083-.197-.198-.368-.345-.513-.147-.144-.32-.259-.517-.342-.199-.083-.413-.125-.643-.125-.23 0-.444.042-.642.125-.199.083-.371.198-.518.343-.147.144-.262.315-.345.512-.083.197-.125.407-.125.63 0 .22.042.427.125.623.083.194.198.364.345.51.147.145.32.26.518.345.198.085.412.127.642.127zm0-.6c-.14 0-.27-.026-.392-.078-.122-.051-.228-.122-.318-.212s-.16-.196-.21-.318c-.05-.121-.075-.252-.075-.392s.025-.272.075-.395c.05-.123.12-.23.21-.323.09-.091.196-.163.318-.215.121-.051.252-.077.392-.077s.27.026.39.078c.12.051.225.123.315.214.09.092.16.2.21.323.05.123.075.255.075.395s-.025.27-.075.392c-.05.122-.12.228-.21.318s-.195.16-.315.212c-.12.052-.25.078-.39.078zM139.35 75c.103 0 .195-.02.275-.058.08-.038.142-.089.185-.152l1.745-2.52c.13-.187.246-.367.347-.542.102-.175.19-.351.263-.528.073-.177.13-.358.168-.543.038-.184.057-.38.057-.587 0-.343-.054-.657-.162-.94-.109-.283-.263-.527-.463-.73-.2-.203-.44-.362-.72-.475-.28-.113-.592-.17-.935-.17-.347 0-.665.058-.955.175-.29.117-.54.277-.75.48-.21.203-.373.442-.49.715-.117.273-.175.567-.175.88 0 .33.054.623.162.877.109.255.255.47.438.645.183.175.396.308.637.398.242.09.498.135.768.135.257 0 .5-.038.73-.115.23-.077.437-.188.62-.335-.057.087-.117.173-.18.26-.063.087-.132.178-.205.275L138.53 75h.82zm.69-3.625c-.217 0-.412-.032-.588-.095-.174-.063-.323-.157-.445-.28-.121-.123-.215-.274-.28-.453-.065-.178-.097-.38-.097-.607 0-.21.035-.403.105-.58.07-.177.17-.328.297-.455.129-.127.284-.226.465-.297.182-.072.383-.108.603-.108.21 0 .403.034.578.103.174.068.325.165.452.292.127.127.226.28.298.463.071.181.107.384.107.607 0 .183-.033.36-.1.53-.067.17-.163.32-.29.45-.127.13-.282.234-.468.313-.184.078-.397.117-.637.117zm5.655 3.7c.363 0 .704-.073 1.023-.22.318-.147.594-.37.827-.67.233-.3.418-.68.553-1.138.134-.458.202-1 .202-1.627s-.068-1.17-.203-1.63c-.135-.46-.319-.84-.552-1.143-.233-.301-.51-.525-.827-.672-.319-.147-.66-.22-1.023-.22-.367 0-.707.073-1.022.22-.316.147-.59.37-.823.672-.233.302-.417.683-.55 1.143-.133.46-.2 1.003-.2 1.63s.067 1.17.2 1.627c.133.459.317.838.55 1.138.233.3.507.523.823.67.315.147.655.22 1.022.22zm0-.75c-.22 0-.432-.05-.635-.148-.203-.098-.382-.26-.535-.487-.153-.227-.276-.525-.368-.895-.091-.37-.137-.828-.137-1.375s.046-1.006.137-1.377c.092-.372.215-.671.368-.898.153-.227.332-.39.535-.487.203-.099.415-.148.635-.148.22 0 .432.05.635.147.203.099.382.261.537.488.156.227.279.526.37.898.092.371.138.83.138 1.377s-.046 1.005-.137 1.375c-.092.37-.215.668-.37.895-.155.227-.335.39-.538.487-.203.099-.415.148-.635.148zm4.885-3.36c.23 0 .444-.043.642-.127.199-.085.371-.2.518-.345.147-.145.262-.316.345-.51.083-.196.125-.403.125-.623 0-.223-.042-.433-.125-.63-.083-.197-.198-.368-.345-.513-.147-.144-.32-.259-.518-.342-.198-.083-.412-.125-.642-.125-.23 0-.444.042-.643.125-.198.083-.37.198-.517.343-.147.144-.262.315-.345.512-.083.197-.125.407-.125.63 0 .22.042.427.125.623.083.194.198.364.345.51.147.145.32.26.518.345.198.085.412.127.642.127zm0-.6c-.14 0-.27-.026-.393-.078-.121-.051-.227-.122-.317-.212s-.16-.196-.21-.318c-.05-.121-.075-.252-.075-.392s.025-.272.075-.395c.05-.123.12-.23.21-.323.09-.091.196-.163.317-.215.122-.051.253-.077.393-.077s.27.026.39.078c.12.051.225.123.315.214.09.092.16.2.21.323.05.123.075.255.075.395s-.025.27-.075.392c-.05.122-.12.228-.21.318s-.195.16-.315.212c-.12.052-.25.078-.39.078zM133.91 48.08c.363 0 .697-.06 1-.18.303-.12.563-.285.778-.495.215-.21.382-.457.502-.74s.18-.59.18-.92c0-.34-.057-.642-.17-.907-.113-.266-.267-.489-.46-.67-.193-.182-.418-.32-.675-.416-.257-.095-.528-.142-.815-.142-.24 0-.463.032-.67.098-.207.065-.395.155-.565.272l2.485-3.145h-.79c-.107 0-.202.02-.285.063-.083.041-.148.092-.195.152l-1.815 2.445c-.303.407-.525.787-.665 1.14-.14.353-.21.687-.21 1 0 .373.056.71.168 1.013.111.301.27.558.477.77.207.211.456.374.748.49.291.114.617.172.977.172zm-.015-.74c-.237 0-.448-.038-.633-.113-.185-.074-.341-.18-.47-.317-.128-.137-.225-.3-.292-.49-.067-.19-.1-.4-.1-.63 0-.197.036-.386.107-.568.072-.181.175-.341.31-.48.135-.138.3-.248.493-.33.193-.081.41-.122.65-.122.223 0 .428.035.615.105.187.07.347.17.48.302.133.132.237.292.31.48.073.189.11.4.11.633 0 .22-.037.423-.112.61-.076.187-.182.348-.32.485-.139.137-.305.243-.498.32-.193.077-.41.115-.65.115zm5.8.735c.363 0 .704-.073 1.023-.22.318-.147.594-.37.827-.67.233-.3.418-.68.553-1.138.134-.458.202-1 .202-1.627s-.068-1.17-.203-1.63c-.135-.46-.319-.84-.552-1.142-.233-.302-.51-.526-.827-.673-.319-.147-.66-.22-1.023-.22-.367 0-.707.073-1.022.22-.316.147-.59.37-.823.672-.233.302-.417.683-.55 1.143-.133.46-.2 1.003-.2 1.63s.067 1.17.2 1.627c.133.459.317.838.55 1.138.233.3.507.523.823.67.315.147.655.22 1.022.22zm0-.75c-.22 0-.432-.05-.635-.148-.203-.098-.382-.26-.535-.487-.153-.227-.276-.525-.368-.895-.091-.37-.137-.828-.137-1.375s.046-1.006.137-1.378c.092-.371.215-.67.368-.897.153-.227.332-.39.535-.488.203-.098.415-.147.635-.147.22 0 .432.05.635.148.203.098.382.26.537.487.156.227.279.526.37.897.092.372.138.831.138 1.378 0 .547-.046 1.005-.137 1.375-.092.37-.215.668-.37.895-.155.227-.335.39-.538.488-.203.098-.415.147-.635.147zm4.885-3.36c.23 0 .444-.043.642-.128.199-.085.371-.2.518-.345.147-.145.262-.314.345-.51.083-.194.125-.402.125-.622 0-.223-.042-.433-.125-.63-.083-.197-.198-.367-.345-.512-.147-.146-.32-.26-.518-.343-.198-.083-.412-.125-.642-.125-.23 0-.444.042-.643.125-.198.083-.37.197-.517.343-.147.144-.262.315-.345.512-.083.197-.125.407-.125.63 0 .22.042.428.125.623.083.195.198.364.345.51.147.145.32.26.518.344.198.085.412.128.642.128zm0-.6c-.14 0-.27-.026-.393-.078-.121-.051-.227-.122-.317-.212s-.16-.196-.21-.318c-.05-.121-.075-.252-.075-.392s.025-.272.075-.395c.05-.123.12-.23.21-.322s.196-.164.317-.216c.122-.051.253-.077.393-.077s.27.026.39.078c.12.051.225.123.315.215.09.091.16.199.21.322.05.123.075.255.075.395s-.025.27-.075.392c-.05.122-.12.228-.21.318s-.195.16-.315.212c-.12.052-.25.078-.39.078zM113.465 27.58c.33 0 .64-.05.927-.147.289-.099.541-.24.758-.425.217-.185.387-.41.512-.673.125-.263.188-.56.188-.89 0-.437-.117-.8-.352-1.09-.236-.29-.586-.497-1.053-.62.19-.057.362-.132.515-.225.153-.093.284-.208.393-.343.108-.135.191-.291.25-.47.058-.178.087-.38.087-.607 0-.277-.052-.528-.155-.755-.103-.227-.248-.42-.432-.58-.185-.16-.406-.283-.663-.37-.257-.087-.537-.13-.84-.13-.307 0-.593.044-.857.133-.265.088-.5.217-.706.387-.205.17-.374.38-.507.633-.133.251-.223.54-.27.867l.465.08.063.008.052.002c.083 0 .152-.022.205-.065.053-.043.093-.113.12-.21.04-.153.1-.296.18-.427.08-.132.18-.245.297-.34.119-.096.255-.17.408-.223.153-.053.32-.08.5-.08s.347.025.502.075c.155.05.29.125.403.225.113.1.203.227.267.38.066.153.098.333.098.54 0 .187-.03.357-.092.51-.062.153-.161.285-.298.395-.137.11-.313.197-.528.26-.215.063-.474.097-.777.1v.645c.373 0 .68.033.918.1s.424.158.56.275c.135.117.228.255.28.415.051.16.077.337.077.53 0 .157-.032.315-.095.475-.063.16-.157.305-.282.435-.126.13-.282.236-.47.318-.189.081-.408.122-.658.122-.25 0-.46-.037-.627-.11-.169-.073-.31-.163-.423-.27-.113-.107-.203-.22-.27-.343-.067-.121-.123-.23-.17-.327l-.02-.047-.02-.043c-.027-.06-.066-.104-.117-.133-.052-.028-.111-.042-.178-.042-.07 0-.14.015-.21.045l-.38.16c.083.267.185.514.305.742.12.229.273.426.46.593.187.167.415.297.685.392.27.095.595.143.975.143zm5.73-.005c.363 0 .704-.073 1.023-.22.318-.147.594-.37.827-.67.233-.3.418-.68.552-1.137.136-.459.203-1.001.203-1.628s-.067-1.17-.203-1.63c-.134-.46-.319-.84-.552-1.142-.233-.302-.51-.526-.828-.673-.318-.147-.659-.22-1.022-.22-.367 0-.707.073-1.022.22-.316.147-.59.37-.823.672-.233.302-.417.683-.55 1.143-.133.46-.2 1.003-.2 1.63s.067 1.17.2 1.627c.133.459.317.838.55 1.138.233.3.508.523.823.67.314.147.655.22 1.022.22zm0-.75c-.22 0-.432-.05-.635-.148-.203-.098-.382-.26-.535-.487-.153-.227-.276-.525-.368-.895-.091-.37-.137-.828-.137-1.375s.046-1.006.138-1.378c.091-.371.214-.67.367-.897.153-.227.332-.39.535-.488.203-.098.415-.147.635-.147.22 0 .432.05.635.147.203.099.383.261.538.488.154.227.278.526.37.898.091.371.137.83.137 1.377s-.046 1.005-.138 1.375c-.091.37-.215.668-.37.895-.154.227-.334.39-.537.487-.203.099-.415.148-.635.148zm4.885-3.36c.23 0 .444-.043.642-.128.199-.084.371-.2.518-.345.147-.145.262-.315.345-.51.083-.194.125-.402.125-.622 0-.223-.042-.433-.125-.63-.083-.197-.198-.367-.345-.512-.147-.145-.32-.26-.517-.343-.199-.083-.413-.125-.643-.125-.23 0-.444.042-.642.125-.199.083-.371.198-.518.343-.147.145-.262.315-.345.512-.083.197-.125.407-.125.63 0 .22.042.428.125.623.083.194.198.364.345.51.147.145.32.26.517.345.199.084.413.127.643.127zm0-.6c-.14 0-.27-.026-.392-.077-.122-.052-.228-.123-.318-.213s-.16-.196-.21-.317c-.05-.122-.075-.253-.075-.393s.025-.272.075-.395c.05-.123.12-.23.21-.322s.196-.164.317-.215c.122-.052.253-.078.393-.078s.27.026.39.078c.12.051.225.123.315.215.09.091.16.199.21.322.05.123.075.255.075.395s-.025.27-.075.393c-.05.121-.12.227-.21.317s-.195.16-.315.213c-.12.051-.25.077-.39.077zM88.01 21.075c.363 0 .704-.073 1.022-.22.319-.147.595-.37.828-.67.233-.3.418-.68.552-1.137.135-.459.203-1.001.203-1.628s-.067-1.17-.203-1.63c-.135-.46-.319-.84-.552-1.142-.233-.302-.51-.526-.828-.673-.318-.147-.659-.22-1.022-.22-.367 0-.708.073-1.023.22-.314.147-.589.37-.822.673-.233.301-.417.682-.55 1.142-.133.46-.2 1.003-.2 1.63s.067 1.17.2 1.627c.133.459.317.838.55 1.138.233.3.507.523.822.67.316.147.656.22 1.023.22zm0-.75c-.22 0-.432-.05-.635-.148-.203-.098-.382-.26-.535-.487-.153-.227-.276-.525-.368-.895-.091-.37-.137-.828-.137-1.375s.046-1.006.138-1.378c.091-.371.214-.67.367-.897.153-.227.332-.39.535-.487.203-.099.415-.148.635-.148.22 0 .432.05.635.148.203.098.383.26.538.487.154.227.278.526.37.898.091.371.137.83.137 1.377s-.046 1.005-.138 1.375c-.091.37-.215.668-.37.895-.154.227-.334.39-.537.487-.203.099-.415.148-.635.148zm4.885-3.36c.23 0 .444-.043.642-.128.199-.084.371-.2.518-.345.147-.145.262-.315.345-.51.083-.194.125-.402.125-.622 0-.223-.042-.433-.125-.63-.083-.197-.198-.367-.345-.513-.147-.145-.32-.259-.518-.342-.198-.083-.412-.125-.642-.125-.23 0-.444.042-.642.125-.199.083-.371.197-.518.342-.147.146-.262.316-.345.513-.083.197-.125.407-.125.63 0 .22.042.428.125.623.083.194.198.364.345.51.147.145.32.26.517.345.199.084.413.127.643.127zm0-.6c-.14 0-.27-.026-.392-.077-.122-.052-.228-.123-.318-.213s-.16-.196-.21-.317c-.05-.122-.075-.253-.075-.393s.025-.272.075-.395c.05-.123.12-.23.21-.322s.196-.164.317-.216c.122-.051.253-.077.393-.077s.27.026.39.077c.12.052.225.124.315.216.09.091.16.199.21.322.05.123.075.255.075.395s-.025.27-.075.393c-.05.121-.12.227-.21.317s-.195.16-.315.213c-.12.051-.25.077-.39.077zM4.666 75.5l1.914-5.928.075-.246c.026-.088.051-.182.075-.282.024.1.049.194.075.282l.075.246L8.776 75.5h1.458l2.694-8.676h-1.266c-.136 0-.252.036-.348.108-.096.072-.158.158-.186.258l-1.476 5.19c-.032.124-.063.258-.093.402-.03.144-.059.294-.087.45-.064-.312-.14-.596-.228-.852l-1.692-5.19c-.036-.112-.1-.201-.192-.267s-.208-.099-.348-.099h-.474c-.136 0-.251.038-.345.114-.094.076-.157.16-.189.252L4.3 72.38c-.044.128-.085.267-.123.417-.038.15-.073.309-.105.477-.028-.168-.057-.327-.087-.477-.03-.15-.063-.289-.099-.417L2.41 67.19c-.032-.112-.095-.201-.189-.267s-.211-.099-.351-.099H.514L3.208 75.5h1.458zM87.847 142.096c.48 0 .906-.073 1.278-.219.372-.146.687-.346.945-.6.258-.254.454-.552.588-.894.134-.342.201-.709.201-1.101 0-.36-.057-.666-.171-.918-.114-.252-.265-.465-.453-.639s-.402-.318-.642-.432c-.24-.114-.485-.214-.735-.3s-.495-.167-.735-.243c-.24-.076-.454-.162-.642-.258s-.339-.212-.453-.348c-.114-.136-.171-.306-.171-.51 0-.16.028-.307.084-.441.056-.134.141-.249.255-.345.114-.096.254-.171.42-.225.166-.054.361-.081.585-.081.248 0 .463.031.645.093s.341.131.477.207c.136.076.254.145.354.207.1.062.19.093.27.093.08 0 .149-.018.207-.054.058-.036.109-.098.153-.186l.396-.762c-.304-.288-.672-.512-1.104-.672-.432-.16-.904-.24-1.416-.24-.452 0-.854.07-1.206.21-.352.14-.649.326-.891.558-.242.232-.426.498-.552.798-.126.3-.189.608-.189.924 0 .396.057.729.171.999.114.27.265.495.453.675.188.18.402.326.642.438.24.112.484.208.732.288.248.08.492.154.732.222s.454.151.642.249.339.219.453.363c.114.144.171.33.171.558 0 .408-.126.721-.378.939-.252.218-.608.327-1.068.327-.3 0-.557-.041-.771-.123-.214-.082-.4-.173-.558-.273-.158-.1-.295-.191-.411-.273-.116-.082-.224-.123-.324-.123-.076 0-.145.019-.207.057-.062.038-.115.085-.159.141l-.468.774c.168.172.359.328.573.468.214.14.444.26.69.36.246.1.503.177.771.231.268.054.54.081.816.081zM163.348 75.5L163.348 74.21 159.502 74.21 159.502 71.756 162.532 71.756 162.532 70.514 159.502 70.514 159.502 68.108 163.348 68.108 163.348 66.824 157.876 66.824 157.876 75.5zM85.762 9V3.672c0-.104-.003-.219-.009-.345-.006-.126-.015-.253-.027-.381l4.536 5.778c.08.104.162.176.246.216.084.04.19.06.318.06h.834V.324h-1.422v5.274c0 .116.003.241.009.375.006.134.017.271.033.411L85.726.582c-.044-.056-.084-.101-.12-.135-.036-.034-.073-.06-.111-.078-.038-.018-.081-.03-.129-.036-.048-.006-.108-.009-.18-.009h-.846V9h1.422z" transform="translate(-42 -536) translate(42 536)"/>
            </g>
        </g>
    </g>
</svg>
