<?xml version="1.0" encoding="utf-8"?>
<!-- Generator: Adobe Illustrator 25.2.1, SVG Export Plug-In . SVG Version: 6.00 Build 0)  -->
<svg version="1.1" id="Ruler" xmlns="http://www.w3.org/2000/svg" xmlns:xlink="http://www.w3.org/1999/xlink" x="0px" y="0px"
	 viewBox="0 0 26 26" style="enable-background:new 0 0 26 26;" xml:space="preserve">
<style type="text/css">
	.st0{fill:#FFFFFF;}
	.st1{fill:#B263F7;}
	.st2{fill:#949494;}
</style>
<path id="outline" class="st0" d="M7.5,0C3.4,0,0,3.4,0,7.5S3.4,15,7.5,15l0.3,0c0.5,0,1-0.1,1.5-0.2l0.4-0.1l1.6,1.6l0,0
	C11.1,17,11,17.7,11,18.5c0,4.1,3.4,7.5,7.5,7.5s7.5-3.4,7.5-7.5l0-0.3c-0.1-2.6-1.6-5-3.8-6.3L22,11.9L22,4l-7.9,0L14,3.8
	C12.7,1.5,10.3,0,7.5,0z"/>
<g id="icon">
	<polygon id="outer_3" class="st1" points="20,6 3.9,6 20,22.1 	"/>
	<polygon id="inner_3" class="st0" points="17,9 17,14.9 11.1,9 	"/>
	<path id="outer_2" class="st2" d="M18.5,13c3,0,5.5,2.5,5.5,5.5S21.5,24,18.5,24S13,21.5,13,18.5S15.5,13,18.5,13z"/>
	<path id="inner_2" class="st0" d="M18.5,15c-1.9,0-3.5,1.6-3.5,3.5s1.6,3.5,3.5,3.5s3.5-1.6,3.5-3.5S20.4,15,18.5,15z"/>
	<path id="outer_1" class="st2" d="M7.5,2c3,0,5.5,2.5,5.5,5.5S10.5,13,7.5,13S2,10.5,2,7.5S4.5,2,7.5,2z"/>
	<path id="inner_1" class="st0" d="M7.5,4C5.6,4,4,5.6,4,7.5S5.6,11,7.5,11S11,9.4,11,7.5S9.4,4,7.5,4z"/>
</g>
</svg>
