<?xml version="1.0" encoding="utf-8"?>
<!-- Generator: Adobe Illustrator 25.2.1, SVG Export Plug-In . SVG Version: 6.00 Build 0)  -->
<svg version="1.1" id="Set_Region" xmlns="http://www.w3.org/2000/svg" xmlns:xlink="http://www.w3.org/1999/xlink" x="0px" y="0px"
	 viewBox="0 0 26 26" style="enable-background:new 0 0 26 26;" xml:space="preserve">
<style type="text/css">
	.st0{fill-rule:evenodd;clip-rule:evenodd;fill:#FFFFFF;}
	.st1{fill:#B263F7;}
	.st2{fill:#FFFFFF;}
	.st3{fill:#949494;}
</style>
<path id="outline" class="st0" d="M7.5,0c2.9,0,5.4,1.6,6.6,4H22v7.9c2.4,1.3,4,3.8,4,6.6c0,4.1-3.4,7.5-7.5,7.5
	c-2.9,0-5.4-1.6-6.6-4H4v-7.9c-2.4-1.3-4-3.8-4-6.6C0,3.4,3.4,0,7.5,0z"/>
<g id="icon">
	<polygon id="outer_3" class="st1" points="20,6 6,6 6,20 20,20 	"/>
	<polygon id="inner_3" class="st2" points="17,9 17,17 9,17 9,9 	"/>
	<path id="outer_2" class="st3" d="M18.5,13c3,0,5.5,2.5,5.5,5.5S21.5,24,18.5,24S13,21.5,13,18.5S15.5,13,18.5,13z"/>
	<path id="inner_2" class="st2" d="M18.5,15c-1.9,0-3.5,1.6-3.5,3.5s1.6,3.5,3.5,3.5s3.5-1.6,3.5-3.5S20.4,15,18.5,15z"/>
	<path id="outer_1" class="st3" d="M7.5,2c3,0,5.5,2.5,5.5,5.5S10.5,13,7.5,13S2,10.5,2,7.5S4.5,2,7.5,2z"/>
	<path id="inner_1" class="st2" d="M7.5,4C5.6,4,4,5.6,4,7.5S5.6,11,7.5,11S11,9.4,11,7.5S9.4,4,7.5,4z"/>
</g>
</svg>
