<svg id="Reload" xmlns="http://www.w3.org/2000/svg" viewBox="0 0 26 26"><defs><style>.cls-1{fill:#fff;}</style></defs><circle id="outline" class="cls-1" cx="13" cy="13" r="13"/><circle id="back" cx="13" cy="13" r="11"/><path id="symbol" class="cls-1" d="M13.19229,19.78065a6.78346,6.78346,0,0,1-6.97392-6.62726.14952.14952,0,0,1,.14721-.15384c.45927-.00143,1.84466-.00555,2.28316-.00233a.13932.13932,0,0,1,.13683.14077A4.21778,4.21778,0,1,0,13.152,8.791l.29151,2.24973a.22.22,0,0,1-.32647.21977L8.25513,8.51129a.22.22,0,0,1-.04525-.34908l4.00057-3.89762a.22.22,0,0,1,.37172.12931l.23741,1.832c.06056-.00161.1195-.00926.18042-.00926a6.78337,6.78337,0,0,1,6.78065,6.97562A6.85781,6.85781,0,0,1,13.19229,19.78065Z"/></svg>