<svg width="34" height="34" viewBox="0 0 34 34" xmlns="http://www.w3.org/2000/svg">
    <g fill-rule="nonzero" fill="none">
        <path d="m12.106 3.88.765 1.85c-.313.114-.62.242-.921.381l-.768-1.849c.302-.138.61-.266.924-.383zM7.46 6.751l1.415 1.416c-.246.226-.482.462-.708.708L6.752 7.461c.228-.244.465-.48.71-.709zm-3.199 4.43 1.85.768c-.14.3-.268.608-.383.921l-1.85-.765c.117-.314.245-.622.383-.924zM6 17c0 .252.009.503.025.751H3.02a14.227 14.227 0 0 1 0-1.501h3.005c-.017.247-.025.498-.025.75zm.113 5.053-1.85.766a13.91 13.91 0 0 1-.384-.925l1.85-.766c.115.315.243.623.384.925zm2.763 3.78-1.415 1.415c-.244-.228-.48-.464-.708-.708l1.417-1.414c.15.163.305.322.464.477l.242.23zm3.995 2.438-.765 1.85a13.91 13.91 0 0 1-.924-.383l.767-1.85c.2.094.404.181.61.264l.312.119zm4.88-.296v3.005a14.227 14.227 0 0 1-1.501 0v-3.005a11.146 11.146 0 0 0 1.501 0zm4.302-.088.766 1.85c-.303.139-.611.267-.925.384l-.765-1.85c.314-.115.623-.243.924-.384zm3.778-2.762 1.416 1.415c-.228.244-.463.48-.707.707l-1.415-1.416c.163-.15.322-.305.477-.464l.23-.242zm2.44-3.997 1.85.766a13.91 13.91 0 0 1-.384.925l-1.85-.766c.094-.201.182-.405.265-.612l.12-.313zm2.71-4.878a14.227 14.227 0 0 1 0 1.5l-3.006.001a11.163 11.163 0 0 0 0-1.502h3.005zm-1.243-5.068c.138.302.266.61.383.924l-1.85.765a11.924 11.924 0 0 0-.383-.922l1.85-.767zM26.54 6.753c.244.228.48.464.708.708l-1.416 1.415a12.075 12.075 0 0 0-.707-.707l1.415-1.416zM21.894 3.88c.314.117.622.245.925.384l-.767 1.85c-.301-.14-.609-.269-.923-.384l.765-1.85z" fill="#757575"/>
        <path fill="red" d="m17 3 3.5 6h-7z"/>
        <path d="M13.717 11.878c.084 0 .154.004.21.01a.492.492 0 0 1 .15.043.505.505 0 0 1 .13.09c.042.04.089.093.14.158l5.313 6.769a6.97 6.97 0 0 1-.038-.48 9.819 9.819 0 0 1-.011-.437v-6.153h1.659V22h-.973a.863.863 0 0 1-.371-.07.826.826 0 0 1-.287-.252l-5.292-6.741a9.71 9.71 0 0 1 .042.847V22H12.73V11.878h.987z" fill="#333"/>
    </g>
</svg>
