<svg width="26" height="26" viewBox="0 0 26 26" xmlns="http://www.w3.org/2000/svg">
    <g fill-rule="nonzero" fill="none">
        <path d="M0 0h26v26H0z"/>
        <path d="M10.5 19c-.55 0-1.02-.196-1.412-.587A1.926 1.926 0 0 1 8.5 17V5c0-.55.196-1.02.588-1.413A1.926 1.926 0 0 1 10.5 3h9c.55 0 1.02.196 1.413.587.391.392.587.863.587 1.413v12c0 .55-.196 1.02-.587 1.413A1.926 1.926 0 0 1 19.5 19h-9zm0-2h9V5h-9v12zm-4 6c-.55 0-1.02-.196-1.412-.587A1.926 1.926 0 0 1 4.5 21V7h2v14h11v2h-11z" fill="#1E8D00"/>
    </g>
</svg>
