<svg width="26" height="26" viewBox="0 0 26 26" xmlns="http://www.w3.org/2000/svg">
    <g fill-rule="nonzero" fill="none">
        <path d="M0 0h26v26H0z"/>
        <path d="M6.5 7v14h11v2h-11c-.55 0-1.02-.196-1.412-.587A1.926 1.926 0 0 1 4.5 21V7h2zm5.252-4.001c-.285.63-.495 1.3-.62 2.001H10.5v12h9v-2c.689 0 1.358-.082 2-.236V17c0 .55-.196 1.02-.587 1.413A1.926 1.926 0 0 1 19.5 19h-9c-.55 0-1.02-.196-1.412-.587A1.926 1.926 0 0 1 8.5 17V5c0-.55.196-1.02.588-1.413A1.926 1.926 0 0 1 10.5 3l1.252-.001zM19.5 0a6.5 6.5 0 1 1 0 13 6.5 6.5 0 0 1 0-13z" fill="#1E8D00"/>
        <path fill="#FFF" d="M18.278 9.556 15.222 6.5l.862-.862 2.194 2.188 4.638-4.638.862.868z"/>
    </g>
</svg>
